<?xml version="1.0" encoding="utf-8"?>
<!-- Generator: Adobe Illustrator 17.0.0, SVG Export Plug-In . SVG Version: 6.00 Build 0)  -->
<!DOCTYPE svg PUBLIC "-//W3C//DTD SVG 1.1//EN" "http://www.w3.org/Graphics/SVG/1.1/DTD/svg11.dtd">
<svg version="1.1" id="Layer_1" xmlns="http://www.w3.org/2000/svg" xmlns:xlink="http://www.w3.org/1999/xlink" x="0px" y="0px"
	 width="24px" height="24px" viewBox="0 0 24 24" enable-background="new 0 0 24 24" xml:space="preserve">
<g>
	
		<radialGradient id="SVGID_1_" cx="31.0942" cy="-29.8408" r="1.4002" gradientTransform="matrix(11.936 0 0 -8.3 -362.564 -239.445)" gradientUnits="userSpaceOnUse">
		<stop  offset="0" style="stop-color:#7FC0FF"/>
		<stop  offset="0.155" style="stop-color:#7FC0FF"/>
		<stop  offset="0.75" style="stop-color:#4074AE"/>
		<stop  offset="1" style="stop-color:#36486C"/>
	</radialGradient>
	<rect x="1.5" y="4.5" fill="url(#SVGID_1_)" width="21" height="14"/>
	<path fill="#39396C" d="M22,5v13H2V5H22 M23,4h-1H2H1v1v13v1h1h20h1v-1V5V4L23,4z"/>
</g>
<path fill="#FFFFFF" d="M9.663,6C9.568,6.011,9.474,6.027,9.378,6.019C9.244,6.011,9.115,6.058,8.982,6.056
	c-0.114,0.003-0.228,0.001-0.34,0.021C8.555,6.076,8.474,6.1,8.389,6.115C8.32,6.14,8.239,6.141,8.174,6.173
	C8.173,6.235,8.05,6.214,7.994,6.233c-0.05,0.021-0.198-0.017-0.152,0.069C7.84,6.377,7.919,6.399,7.981,6.393
	C8.074,6.381,8.173,6.384,8.26,6.419c0.067,0.043,0.065,0.137,0.027,0.199c-0.03,0.08,0.145,0.012,0.115,0.089
	C8.361,6.696,8.284,6.696,8.334,6.755c0.083,0.078-0.08,0.058-0.11,0.11C8.167,6.917,8.17,7.002,8.196,7.069
	C8.171,7.161,8.221,7.251,8.269,7.326c0.061,0.003,0.129-0.009,0.166,0.058C8.506,7.422,8.554,7.328,8.6,7.287
	C8.614,7.209,8.713,7.2,8.738,7.122c0.031-0.091,0.136-0.071,0.197-0.11C9.012,7.045,9.113,6.98,9.184,6.936
	c0.059-0.068,0.129-0.056,0.209-0.068C9.505,6.854,9.61,6.811,9.715,6.767C9.778,6.715,9.586,6.728,9.66,6.685
	c0.039,0.07,0.184,0.057,0.131-0.041C9.766,6.612,9.648,6.573,9.747,6.561c0.089,0.002,0.18-0.027,0.232-0.103
	c0.057-0.037-0.052-0.118,0.045-0.108c0.068-0.022-0.005-0.072-0.012-0.081c0.053-0.046,0.117-0.07,0.183-0.095
	c0.061-0.036,0.189-0.012,0.206-0.087C10.3,6.072,10.194,6.074,10.09,6.076c-0.05,0.019-0.033-0.052-0.094-0.045
	C9.888,6.001,9.774,6,9.663,6z M7.802,6.027C7.653,6.028,7.51,6.078,7.363,6.09c-0.06-0.017-0.08,0.039-0.017,0.05
	c0.028,0.016,0.14,0.008,0.059,0.04c0.029,0.06-0.092,0.083-0.144,0.089c-0.087,0.01-0.17,0.046-0.25,0.079
	c-0.012,0.065,0.11,0.018,0.152,0.027c0.066-0.012,0.132-0.005,0.198,0c0.104,0.015,0.156-0.095,0.261-0.092
	C7.712,6.256,7.8,6.218,7.896,6.214C8.04,6.177,8.182,6.133,8.327,6.099C8.368,6.092,8.49,6.066,8.39,6.045
	C8.242,6.01,8.091,6.068,7.942,6.04C7.895,6.034,7.848,6.03,7.802,6.027z M7.17,6.12C7.112,6.158,6.927,6.156,7.002,6.258
	C7.091,6.307,7.19,6.235,7.284,6.236c0.062,0.015,0.104-0.049,0.029-0.069C7.268,6.145,7.224,6.111,7.17,6.12z M6.588,6.199
	c-0.096-0.001-0.025,0.099,0.04,0.084c0.049,0.032,0.131-0.042,0.049-0.058C6.643,6.224,6.62,6.2,6.588,6.199z M6.8,6.242
	c-0.109,0.034,0.139,0.13,0.091,0.026C6.866,6.246,6.83,6.248,6.8,6.242z M6.174,6.265c-0.042-0.015-0.129,0.045-0.048,0.05
	c0.039,0.023,0.164-0.027,0.079-0.049L6.189,6.265L6.174,6.265L6.174,6.265z M15.297,6.292c-0.09-0.013-0.114,0.092-0.208,0.067
	c-0.093,0.007-0.185,0.026-0.276,0.044c-0.039,0.027-0.152,0.032-0.104,0.093c-0.071,0.014-0.146,0.006-0.217,0.023
	c-0.055,0.028,0.066,0.096-0.027,0.074c-0.067,0.003-0.129,0.038-0.183-0.019c-0.047-0.005-0.01,0.051-0.063,0.032
	c-0.062-0.051-0.222-0.094-0.242,0.009c0.006,0.04-0.089,0.071-0.022,0.107c0.013,0.075,0.101,0.072,0.137,0.117
	c-0.117-0.032-0.225-0.108-0.351-0.094c-0.048-0.015-0.097,0.031-0.051,0.065c-0.083-0.021-0.169,0.005-0.253,0.015
	c-0.076-0.047-0.146,0.012-0.219,0.033c-0.054,0.002-0.095,0.034-0.119,0.071c-0.035,0.001-0.123-0.032-0.049-0.047
	c0.04-0.071-0.127-0.066-0.15-0.039c0.033,0.029,0.013,0.089,0.042,0.111c-0.065,0.009-0.15,0.043-0.183,0.093
	c0.059,0.067-0.074-0.01-0.104-0.01c-0.074-0.011-0.027,0.072-0.004,0.076c-0.096,0-0.096-0.101-0.157-0.131
	c0.081,0.022,0.169,0.037,0.252,0.011c0.093-0.014,0.076-0.124-0.01-0.134c-0.113-0.06-0.244-0.063-0.363-0.106
	c-0.045,0.002-0.084-0.002-0.095-0.047c-0.083-0.023-0.17-0.027-0.256-0.024c-0.09-0.02-0.151,0.046-0.233,0.061
	c-0.096-0.051-0.13,0.082-0.215,0.1c-0.048,0.082-0.148,0.114-0.183,0.204c-0.065,0.063-0.136,0.114-0.224,0.135
	c-0.062,0.053-0.183,0.059-0.145,0.167c0.017,0.07,0.018,0.182,0.11,0.19c0.074,0.005,0.129-0.076,0.191-0.083
	c0.022,0.059,0.062,0.107,0.101,0.155c0.038,0.082-0.141,0.041-0.07,0.127c-0.049,0.028,0.066,0.072-0.012,0.05
	c-0.116-0.034-0.016-0.145-0.022-0.223c-0.073-0.026-0.174,0.08-0.14,0.158c0.047,0.041,0.03,0.13-0.042,0.101
	c-0.066,0.047-0.17,0.036-0.192,0.133c-0.043,0.046-0.122,0.05-0.147,0.109c-0.038,0.057-0.117,0.081-0.177,0.047
	c-0.036,0.026-0.01,0.103-0.085,0.062c-0.071-0.029-0.165,0.054-0.061,0.088c0.103,0.015,0.184,0.14,0.137,0.24
	c-0.001,0.117-0.136,0.055-0.208,0.058c-0.088,0.001-0.182-0.036-0.25,0.033c-0.014,0.074,0.011,0.162-0.024,0.237
	c-0.038,0.049-0.036,0.1-0.005,0.151c-0.039,0.129,0.15,0.016,0.171,0.121c0.076,0.035,0.159-0.029,0.241-0.022
	c0.065-0.034,0.142-0.107,0.14-0.175c-0.003-0.072,0.08-0.143,0.151-0.164c0.096-0.026,0.026-0.188,0.152-0.158
	c0.099,0.056,0.171-0.04,0.258-0.061c0.074,0.034,0.091,0.13,0.165,0.169c0.075,0.044,0.151,0.084,0.219,0.139
	c0.075,0.082-0.027,0.151-0.11,0.13c-0.053-0.024-0.107,0.034-0.038,0.055c0.045,0.016,0.143,0.105,0.142,0.004
	c0.013-0.055,0.097-0.049,0.103-0.12c-0.014-0.039-0.023-0.117,0.04-0.073c0.078,0.044,0.043-0.069-0.014-0.074
	c-0.073-0.036-0.133-0.083-0.204-0.124c-0.019-0.065-0.154-0.126-0.083-0.188c0.09-0.034,0.132,0.087,0.2,0.124
	c0.071,0.026,0.139,0.072,0.182,0.134c0.009,0.088,0.041,0.169,0.1,0.237c0.056,0.054,0.041,0.165,0.146,0.148
	c0.058-0.01-0.022-0.124-0.019-0.116c0.059,0.059,0.111-0.024,0.05-0.07c0.011-0.043-0.05-0.097,0.025-0.103
	c0.03-0.045,0.122,0.001,0.146,0.007c-0.071,0.047,0.067,0.119-0.005,0.158c0.053,0.035,0.052,0.142,0.137,0.108
	c0.05,0.027,0.109,0.066,0.151,0.004c0.074,0.009,0.145,0.103,0.218,0.021c0.045,0.002,0.112-0.028,0.092,0.041
	c0.01,0.08-0.019,0.15-0.039,0.224c0.005,0.108-0.11,0.157-0.194,0.095c-0.082-0.046-0.15,0.081-0.232,0.014
	c-0.086-0.022-0.173-0.036-0.255-0.071c-0.056-0.029-0.119-0.074-0.186-0.04c-0.077,0.013-0.086,0.088-0.072,0.149
	c-0.078,0.059-0.143-0.074-0.232-0.052c-0.044-0.043-0.075-0.124-0.159-0.104c-0.076,0.007-0.153-0.028-0.202-0.085
	c0.031-0.049,0.061-0.105,0.027-0.157c0.051-0.038-0.002-0.08-0.035-0.078c-0.069-0.014-0.142,0.023-0.218,0.008
	c-0.066,0.037-0.132-0.012-0.203,0.016c-0.073,0.024-0.165-0.002-0.222,0.06c-0.067,0.053-0.142,0.074-0.226,0.057
	c-0.065,0.041-0.109-0.1-0.153-0.005c-0.027,0.109-0.141,0.14-0.207,0.218c-0.06,0.075-0.013,0.183-0.095,0.244
	c-0.05,0.078-0.182,0.052-0.183,0.163c-0.05,0.036-0.122,0.071-0.097,0.15c-0.059,0.078-0.138,0.155-0.156,0.262
	c-0.008,0.059,0.067,0.088,0.033,0.158c0.036,0.091-0.001,0.19-0.037,0.275c-0.047,0.045-0.026,0.086,0.009,0.13
	c-0.054,0.108,0.051,0.167,0.114,0.231c0.046,0.053,0.1,0.102,0.11,0.176c0.023,0.083,0.126,0.09,0.158,0.169
	c0.075,0.03,0.12,0.121,0.206,0.13c0.098-0.026,0.196-0.084,0.299-0.044c0.089,0.041,0.169-0.043,0.256-0.062
	c0.076-0.036,0.181-0.062,0.255-0.009c0.024,0.045,0.069,0.081,0.102,0.117c0.043,0.035,0.194-0.043,0.223,0.034
	c0.051,0.123-0.082,0.273-0.046,0.386c0.048,0.106,0.147,0.177,0.197,0.282c-0.007,0.098,0.098,0.168,0.076,0.267
	c-0.025,0.081,0.063,0.152,0.031,0.234c-0.058,0.072-0.089,0.15-0.107,0.241c-0.022,0.07-0.038,0.148-0.021,0.22
	c0.04,0.068,0.065,0.143,0.101,0.213c0.056,0.071,0.092,0.145,0.069,0.237c0.023,0.083,0.017,0.173,0.055,0.252
	c0.042,0.073,0.123,0.121,0.123,0.216c0.009,0.063,0.096,0.129,0.029,0.182c0.011,0.087,0.087,0.171,0.181,0.123
	c0.092-0.021,0.186-0.017,0.28-0.033c0.075-0.02,0.156-0.039,0.211-0.099c0.06-0.065,0.13-0.125,0.169-0.207
	c0.027-0.058,0.098-0.082,0.109-0.148c0.045-0.059-0.006-0.155,0.055-0.191c0.091-0.004,0.151-0.085,0.151-0.172
	c0.027-0.093-0.093-0.201,0.004-0.268c0.069-0.054,0.116-0.131,0.203-0.161c0.088-0.049,0.166-0.14,0.152-0.248
	c-0.016-0.094,0-0.193-0.016-0.283c-0.08-0.063-0.061-0.178-0.047-0.261c-0.094-0.072,0.016-0.158,0.038-0.237
	c0.014-0.085,0.109-0.109,0.139-0.184c0.061-0.085,0.122-0.178,0.219-0.225c0.135-0.088,0.2-0.243,0.264-0.384
	c0.039-0.089,0.096-0.176,0.09-0.278c0.026-0.069-0.037-0.115-0.09-0.061c-0.074,0.036-0.16,0.025-0.224,0.068
	c-0.06-0.032-0.125,0.054-0.171-0.028c-0.026-0.065-0.039-0.139-0.105-0.185c-0.037-0.077-0.118-0.09-0.174-0.143
	c-0.036-0.082-0.039-0.18-0.129-0.226c-0.04-0.077-0.023-0.174-0.069-0.251c-0.061-0.074-0.116-0.147-0.143-0.242
	C12.84,9.847,12.79,9.742,12.767,9.69c0.032,0.043,0.085,0.052,0.085-0.012c0.029,0.071,0.089,0.139,0.132,0.209
	c0.033,0.087,0.113,0.138,0.149,0.223c0.029,0.068,0.019,0.16,0.093,0.201c0.079,0.042,0.078,0.143,0.145,0.194
	c0.058,0.057,0.029,0.147,0.067,0.215c0.011,0.069,0.015,0.162,0.114,0.139c0.079-0.038,0.16-0.073,0.244-0.098
	c0.057-0.064,0.148-0.049,0.215-0.095c0.034-0.036,0.008-0.097,0.078-0.096c0.06-0.027,0.126-0.033,0.162-0.09
	c0.06-0.012,0.076-0.075,0.133-0.095c-0.021-0.08,0.061-0.107,0.081-0.176c0.043-0.056-0.006-0.11-0.043-0.153
	C14.389,10,14.309,10.052,14.29,9.976c-0.046-0.029-0.044-0.19-0.1-0.095c-0.029,0.103-0.144,0.142-0.237,0.104
	c-0.008-0.029,0.018-0.147-0.049-0.132c-0.013,0.024-0.051,0.067-0.038,0.007c-0.01-0.098-0.141-0.125-0.151-0.23
	c0.009-0.124,0.173-0.042,0.172,0.049c0.048,0.091,0.167,0.13,0.262,0.156c0.055-0.008,0.134-0.067,0.142,0.027
	c0.071,0.072,0.196,0.055,0.291,0.08c0.105,0.01,0.208-0.027,0.314-0.02c0.033,0.076,0.106,0.121,0.166,0.173
	c0.039,0.021,0.086,0.014,0.021,0.031c-0.021,0.058,0.084,0.08,0.105,0.132c0.069,0.024,0.122-0.037,0.118-0.096
	c0.005,0.095,0.03,0.185,0.043,0.279c0.018,0.085,0.056,0.163,0.088,0.243c0.064,0.085,0.073,0.195,0.13,0.284
	c0.041,0.07,0.052,0.16,0.114,0.216c0.073,0.001,0.126-0.086,0.16-0.145c0.05-0.04-0.012-0.123,0.032-0.178
	c0.03-0.075-0.021-0.153-0.003-0.225c0.081-0.043,0.137-0.108,0.198-0.174c0.04-0.085,0.139-0.116,0.182-0.191
	c-0.013-0.104,0.138-0.076,0.206-0.108c0.092-0.081,0.09,0.082,0.152,0.122c0.052,0.052,0.102,0.104,0.125,0.178
	c0.03,0.07-0.02,0.171,0.087,0.179c0.046-0.021,0.105-0.059,0.108-0.095c0.039,0.086,0.067,0.175,0.111,0.258
	c0.045,0.083,0.014,0.175,0.026,0.261c-0.008,0.067-0.025,0.155,0.049,0.172c0.051,0.071,0.103,0.145,0.114,0.235
	c0.027,0.075,0.053,0.162,0.137,0.192c0.037,0.04,0.131,0.064,0.105-0.023c-0.063-0.085-0.014-0.211-0.105-0.281
	c-0.067-0.062-0.154-0.106-0.169-0.203c-0.001-0.07-0.098-0.066-0.062-0.146c0.033-0.064,0.017-0.159,0.047-0.209
	c0.024,0.032,0.04,0.074,0.095,0.06c0.045,0.042,0.084,0.092,0.111,0.146c0.032,0.029,0.045,0.039,0.08,0.038
	c0.02,0.038,0.005,0.169,0.077,0.1c0.055-0.052,0.074-0.12,0.149-0.14c0.061-0.034,0.094-0.104,0.078-0.173
	c-0.024-0.088-0.044-0.18-0.113-0.246c-0.055-0.064-0.122-0.119-0.165-0.192c-0.017-0.084,0.066-0.206,0.155-0.192
	c0.054-0.006,0.083,0.15,0.117,0.06c-0.022-0.102,0.146-0.033,0.18-0.119c0.054,0.055,0.112-0.056,0.177-0.057
	c0.065-0.059,0.141-0.126,0.163-0.214c0.023-0.1,0.081-0.195,0.066-0.301c-0.014-0.042-0.101-0.013-0.037-0.06
	c0.009-0.098-0.106-0.146-0.137-0.233c-0.018-0.054-0.083-0.065-0.115-0.086c0.015-0.069,0.078-0.117,0.141-0.141
	c0.006-0.063-0.098-0.028-0.133-0.064c-0.039,0.017-0.083,0.069-0.102-0.004c-0.005-0.06-0.126-0.013-0.105-0.075
	c0.09,0.013,0.077-0.172,0.171-0.108c0,0.046,0.012,0.166,0.079,0.094c0.048-0.074,0.206-0.045,0.172,0.058
	c0.035,0.065,0.185,0.015,0.143,0.126c0.048,0.044,0.043,0.118,0.08,0.168c0.061-0.019,0.2-0.034,0.145-0.129
	c-0.039-0.097-0.116-0.173-0.201-0.231c-0.061-0.066,0.097-0.105,0.042-0.186c-0.012-0.065,0.056-0.119,0.105-0.064
	c0.104,0.024,0.123-0.095,0.137-0.168c0.034-0.07,0.032-0.147,0.046-0.221c0.037-0.092-0.046-0.159-0.091-0.227
	c-0.021-0.027-0.034-0.097,0.008-0.037c0.062,0.039,0.092,0.109,0.138,0.164c0.036,0.061,0.078,0.118,0.112,0.18
	c0.024,0.07,0.084,0.08,0.123,0.025c-0.046-0.057-0.123-0.097-0.139-0.176c0.035-0.005,0.069-0.024,0.019-0.054
	c-0.101-0.048-0.142-0.162-0.225-0.23c-0.047-0.014-0.084-0.126-0.125-0.091c0.001,0.037,0.042,0.118-0.011,0.053
	c-0.057-0.037-0.149-0.09-0.209-0.056c0.007,0.055-0.105-0.006-0.108-0.045c-0.053-0.007-0.115-0.007-0.062-0.068
	c0.022-0.078,0.044-0.159,0.085-0.225c0.092-0.025,0.188,0.001,0.281-0.016c0.091-0.049,0.169,0.048,0.258,0.028
	c0.044,0,0.155-0.028,0.067-0.066c-0.051-0.037-0.017-0.155,0.062-0.118c0.075-0.004,0.161,0.128,0.21,0.008
	c0.058-0.014-0.057-0.094,0.006-0.056c0.024,0.051,0.097,0.095,0.027,0.14c-0.028,0.058,0.04,0.13-0.044,0.152
	c-0.041,0.059,0.035,0.144,0.078,0.194c0.056,0.054,0.12,0.099,0.167,0.162c0.052,0.05,0.112,0.091,0.167,0.137
	c0.105-0.014-0.049-0.155,0.056-0.165c-0.001-0.033-0.082-0.074-0.012-0.08c0.059-0.073-0.082-0.096-0.067-0.169
	c-0.037-0.063-0.096-0.091-0.159-0.111c-0.008-0.037-0.055-0.109,0.018-0.094c0.04-0.047,0.095,0.061,0.12-0.027
	c0.059-0.012,0.137,0.055,0.175-0.022c0.024-0.098,0.12-0.13,0.21-0.113c0.092-0.05-0.061-0.081-0.101-0.098
	c-0.048-0.022-0.114-0.045-0.042-0.085c0.061-0.055,0.142,0.016,0.211,0.025c0.052,0.021,0.22,0.077,0.168-0.027
	c-0.054-0.03,0.052-0.034-0.014-0.064c-0.102-0.072-0.233-0.061-0.347-0.1c-0.12-0.056-0.25-0.084-0.381-0.1
	c-0.153-0.037-0.311-0.047-0.467-0.063c-0.049-0.009-0.104,0-0.087,0.047c-0.152-0.041-0.313-0.015-0.467-0.042
	c-0.074-0.055-0.168-0.056-0.257-0.069c-0.097,0.001-0.201,0.023-0.292-0.024c-0.094-0.02-0.187-0.052-0.285-0.053
	c-0.096-0.009-0.192-0.016-0.287-0.026c-0.03,0-0.074,0.048-0.028,0.063c-0.083-0.012-0.163,0.018-0.246,0.011
	C16.94,6.609,16.9,6.635,16.928,6.685c-0.099-0.03-0.153-0.121-0.25-0.149c-0.072-0.018-0.148,0.021-0.215-0.024
	c-0.04-0.018-0.081,0.015-0.076,0.035c-0.074-0.003-0.148-0.019-0.222-0.017c-0.091-0.008-0.183-0.013-0.273-0.029
	c-0.057,0.007-0.121,0.057-0.175,0.035c0.038-0.045,0.204-0.092,0.091-0.151c-0.099-0.057-0.219-0.021-0.323-0.059
	C15.419,6.323,15.36,6.295,15.297,6.292z M5.841,6.306c-0.098,0.01-0.203,0.009-0.294,0.053C5.505,6.422,5.649,6.4,5.683,6.389
	C5.742,6.354,5.878,6.383,5.89,6.318C5.876,6.309,5.858,6.305,5.841,6.306z M6.723,6.326c-0.098,0.08,0.191,0.07,0.079,0.009
	C6.776,6.326,6.749,6.325,6.723,6.326z M5.916,6.347C5.849,6.377,5.755,6.369,5.711,6.437c0.068,0.036,0.17,0.039,0.251,0.04
	c0.085-0.014,0.176,0.001,0.258-0.029c0.059-0.03,0.024-0.087-0.033-0.054C6.17,6.296,6.076,6.407,6.036,6.409
	C5.993,6.395,5.956,6.367,5.916,6.347z M6.563,6.347C6.498,6.32,6.37,6.417,6.479,6.448C6.53,6.453,6.657,6.411,6.629,6.352
	C6.607,6.349,6.585,6.347,6.563,6.347z M6.357,6.349C6.254,6.378,6.439,6.474,6.418,6.377C6.407,6.355,6.38,6.344,6.357,6.349z
	 M6.892,6.352C6.859,6.378,6.788,6.416,6.801,6.458c0.092,0.016,0.189,0.01,0.281,0.033c0.08,0.006,0.18,0.005,0.235-0.063
	c0.01-0.079-0.128-0.024-0.179-0.036c-0.084,0.015-0.16-0.005-0.231-0.04H6.892z M6.684,6.414c-0.088-0.018-0.082,0.082-0.001,0.07
	C6.751,6.492,6.762,6.399,6.684,6.414z M5.469,6.463c-0.083,0.01-0.17,0.012-0.242,0.059c-0.054,0.036-0.173,0.042-0.17,0.12
	c0.059,0.081,0.154,0.008,0.23-0.002c0.07-0.024,0.055,0.077,0.026,0.094c-0.093,0.054,0.061,0.081,0.1,0.103
	c0.106,0.012,0.21-0.014,0.313-0.034c0.095,0.028,0.209,0.05,0.288-0.018C6.104,6.773,6.051,6.71,6.009,6.683
	c0.031-0.05,0.076-0.158-0.029-0.152c-0.042-0.007-0.099,0.098-0.105,0.07C5.857,6.519,5.769,6.596,5.717,6.559
	C5.64,6.597,5.66,6.447,5.573,6.484C5.535,6.495,5.5,6.487,5.469,6.463z M6.633,6.488c-0.061,0-0.179,0.071-0.135,0.131
	c0.066-0.021,0.138-0.018,0.204-0.039c0.036-0.022,0.132-0.074,0.034-0.078C6.701,6.5,6.667,6.496,6.633,6.488z M6.437,6.491
	C6.372,6.499,6.276,6.474,6.258,6.559C6.2,6.548,6.146,6.608,6.215,6.646c0.071,0.053,0.204,0.008,0.227-0.074
	C6.451,6.539,6.514,6.493,6.437,6.491z M7.247,6.504c-0.092,0.013,0.061,0.11-0.029,0.087C7.135,6.618,7.23,6.511,7.146,6.519
	c-0.061-0.02-0.178,0.042-0.185,0.044c0.07-0.026,0.033-0.062-0.024-0.046C6.848,6.51,6.774,6.554,6.711,6.612
	C6.622,6.668,6.703,6.744,6.775,6.756C6.727,6.815,6.639,6.924,6.567,6.888c0.057-0.023,0.054-0.123-0.019-0.081
	C6.495,6.859,6.549,6.756,6.482,6.756c0.074-0.015,0.045-0.169-0.039-0.122c-0.061,0.019-0.127,0.049-0.155,0.11
	c0.026,0.033,0.054,0.061-0.002,0.088C6.217,6.918,6.131,6.812,6.05,6.864C5.965,6.859,5.86,6.901,5.79,6.838
	C5.731,6.801,5.645,6.82,5.589,6.852C5.503,6.873,5.398,6.885,5.305,6.878c-0.01-0.002,0.054-0.04,0.006-0.062
	c-0.073-0.013-0.142-0.01-0.204-0.058C5.022,6.732,4.933,6.779,4.859,6.759C4.843,6.672,4.74,6.756,4.68,6.732
	C4.593,6.741,4.51,6.767,4.423,6.769c-0.068,0.031-0.13,0.028-0.197-0.002c-0.076-0.016-0.142-0.056-0.224-0.04
	C3.906,6.729,3.814,6.695,3.719,6.689C3.645,6.671,3.567,6.654,3.493,6.68C3.385,6.688,3.27,6.679,3.171,6.732
	C3.086,6.754,3.007,6.798,2.918,6.804C2.86,6.804,2.778,6.842,2.833,6.905C2.85,6.941,2.91,6.972,2.832,6.974
	c-0.072,0.02-0.14-0.026-0.217,0.008C2.543,6.978,2.446,7.028,2.487,7.106c0.062-0.007,0.18,0.002,0.208-0.003
	C2.645,7.155,2.572,7.147,2.509,7.17C2.434,7.193,2.361,7.222,2.29,7.256C2.211,7.267,2.158,7.349,2.163,7.419
	c0.024,0.045,0.143-0.027,0.061,0.034c-0.066,0.073,0.078,0.032,0.115,0.04c0.1,0.015-0.06,0.056-0.089,0.072
	C2.161,7.591,2.096,7.666,2.003,7.68c-0.02,0.031,0.086,0.032,0.112,0.017C2.241,7.63,2.379,7.589,2.509,7.53
	c0.1-0.027,0.18-0.091,0.278-0.124c0.033-0.017,0.081-0.031,0.024,0C2.74,7.445,2.807,7.479,2.855,7.451
	c0.072-0.022,0.161-0.024,0.198-0.098C3.138,7.289,3.19,7.403,3.28,7.389c0.06,0.025,0.153,0.006,0.18,0.076
	c0.001,0.068,0.137,0.052,0.072,0.126c0.035,0.053,0.03,0.109,0.04,0.166C3.507,7.8,3.556,7.886,3.538,7.946
	C3.474,8.044,3.631,8.061,3.646,8.152c0.028,0.088-0.047-0.04-0.055-0.072C3.545,8.035,3.425,8.047,3.487,8.132
	c0.106,0.071,0.019,0.191-0.029,0.273C3.402,8.489,3.334,8.563,3.273,8.643C3.255,8.7,3.227,8.753,3.188,8.798
	c-0.05,0.096,0.025,0.191-0.001,0.29c0.009,0.075-0.01,0.178,0.095,0.181c0.085,0.041,0.069,0.139,0.082,0.217
	C3.346,9.571,3.421,9.63,3.424,9.705c-0.106,0.039,0.006,0.14,0.067,0.147c0.021,0.055-0.015,0.13,0.066,0.152
	c0.021,0.028,0.068,0.129,0.086,0.041C3.597,9.956,3.574,9.858,3.545,9.76C3.534,9.659,3.429,9.577,3.479,9.473
	C3.517,9.441,3.588,9.491,3.565,9.55C3.55,9.657,3.648,9.725,3.677,9.82C3.693,9.878,3.7,9.931,3.759,9.967
	c0.048,0.06,0.084,0.132,0.114,0.202c0.001,0.073-0.06,0.181,0.043,0.221c0.072,0.064,0.16,0.103,0.241,0.156
	c0.086,0.031,0.169,0.088,0.263,0.083c0.058-0.022,0.129-0.034,0.169,0.027c0.044,0.064,0.109,0.112,0.181,0.116
	c0.067,0.076,0.209,0.03,0.234,0.153c0.025,0.066,0.074-0.028,0.094,0.032c-0.078,0.008-0.063,0.133,0.016,0.135
	c0.065,0.04,0.097,0.121,0.186,0.118c0.033,0.06,0.129,0.052,0.105-0.027c0.049-0.075,0.137-0.009,0.123,0.061
	c0.059,0.076,0.05,0.179,0.03,0.267c-0.02,0.078-0.096,0.117-0.112,0.193c-0.093,0.009-0.068,0.119-0.117,0.179
	c-0.024,0.061,0.034,0.108,0.051,0.145c-0.056,0.049-0.106,0.122-0.055,0.192c-0.008,0.077,0.098,0.082,0.114,0.154
	c0.043,0.095,0.108,0.176,0.152,0.271c0.049,0.092,0.086,0.192,0.155,0.271c0.049,0.072,0.145,0.075,0.212,0.123
	c0.062,0.05,0.146,0.094,0.155,0.183c0.027,0.145,0.012,0.295,0.034,0.441c0.003,0.073,0.021,0.144,0.007,0.217
	c-0.002,0.088,0.006,0.178,0.031,0.264c0.018,0.084,0.03,0.17,0.011,0.254c0.009,0.078-0.036,0.159,0.007,0.228
	c0.036,0.087,0.028,0.187,0.075,0.269c0.107,0.021,0.081,0.155,0.11,0.237c-0.002,0.101,0.091,0.178,0.08,0.278
	c0.03,0.088,0.101,0.154,0.127,0.243c0.047,0.067,0.147,0.143,0.213,0.052c0.044-0.014,0.01,0.067,0.066,0.065
	c0.016,0.097,0.109,0.073,0.183,0.08c0.053,0.028,0.173-0.009,0.063-0.041c-0.078-0.031-0.171-0.07-0.197-0.157
	c-0.063-0.051-0.117-0.124-0.059-0.202c0.008-0.059,0.121-0.119,0.034-0.173c-0.078-0.007-0.165-0.097-0.062-0.145
	c0.089-0.026-0.038-0.178,0.068-0.159c0.043-0.087-0.104-0.03-0.102-0.115c-0.011-0.049,0.101,0.036,0.13-0.013
	c0.084-0.032-0.062-0.175,0.036-0.151c0.091,0.003,0.226-0.016,0.234-0.13c0.029-0.067-0.039-0.123-0.071-0.174
	c-0.032-0.012-0.085-0.049-0.015-0.023c0.089,0.027,0.217,0.066,0.252-0.057C7.42,14.246,7.393,14.1,7.482,14.08
	c0.034-0.046,0.045-0.116,0.1-0.153c0.036-0.082-0.035-0.173,0.004-0.255c0.052-0.076,0.147-0.092,0.222-0.136
	c0.088-0.02,0.182-0.02,0.227-0.113c-0.001-0.096,0.081-0.171,0.068-0.271c0.046-0.088,0.032-0.189,0.014-0.283
	c-0.006-0.106,0.088-0.175,0.131-0.264c0.107-0.101,0.16-0.273,0.09-0.409c-0.056-0.056-0.154-0.044-0.199-0.12
	c-0.06-0.081-0.158-0.079-0.246-0.083c-0.051-0.022-0.113-0.044-0.161-0.027c-0.028-0.09-0.159-0.131-0.244-0.124
	c-0.009-0.069-0.142-0.035-0.121-0.131c-0.007-0.067-0.061-0.123-0.069-0.194c-0.042-0.078-0.118-0.145-0.208-0.161
	c-0.071-0.026-0.161,0.017-0.215-0.051c-0.062-0.046-0.081-0.15-0.176-0.152c-0.038-0.014-0.007-0.082-0.064-0.093
	c0.086-0.002,0.017-0.128-0.021-0.05c-0.003,0.056-0.046,0.033-0.018-0.009c-0.09-0.056-0.193,0.074-0.283-0.006
	c-0.062-0.001-0.115-0.014-0.153-0.059c-0.048,0.011-0.075-0.08-0.102-0.008C6.03,10.94,5.944,11.01,5.978,10.944
	c0.086-0.039-0.007-0.116-0.051-0.048c-0.064,0.065-0.194,0.036-0.229,0.135C5.687,11.083,5.61,11.21,5.57,11.123
	c-0.083-0.104-0.182,0.028-0.274-0.011c-0.076-0.036-0.131-0.121-0.092-0.205c0.01-0.075,0.046-0.145,0.046-0.22
	c-0.042-0.093-0.172-0.092-0.263-0.064c-0.055,0.011-0.093-0.02-0.045-0.065c0.005-0.074,0.066-0.124,0.084-0.194
	c0.004-0.058,0.043-0.108,0.05-0.16c-0.072-0.043-0.213-0.023-0.253,0.054c-0.01,0.079-0.05,0.172-0.145,0.151
	c-0.073,0.003-0.137,0.032-0.195-0.027c-0.079-0.081-0.084-0.205-0.074-0.311c0.006-0.099,0.083-0.179,0.079-0.279
	c0.031-0.096,0.143-0.12,0.222-0.166c0.088-0.069,0.188,0.015,0.287,0.006c0.08,0.024,0.002-0.101,0.085-0.063
	c0.079-0.026,0.177-0.039,0.227,0.037c0.08-0.056,0.127,0.046,0.103,0.114C5.42,9.794,5.449,9.89,5.507,9.928
	C5.594,9.898,5.603,9.787,5.58,9.711C5.56,9.624,5.533,9.521,5.604,9.45c0.043-0.061,0.115-0.091,0.172-0.136
	c0.061-0.032,0.113-0.076,0.18-0.095C6.01,9.148,6.042,9.06,6.042,8.964C6.08,9.032,6.118,8.895,6.166,8.88
	c0.057-0.083,0.139-0.14,0.242-0.15c0.109-0.006,0.069-0.158,0.18-0.175C6.676,8.514,6.764,8.474,6.859,8.44
	c0.035-0.018,0.077-0.012,0.022,0.008C6.833,8.468,6.735,8.572,6.838,8.573c0.044-0.066,0.111-0.076,0.181-0.093
	C7.056,8.457,7.184,8.441,7.088,8.4C6.99,8.412,6.933,8.3,6.998,8.232C7.105,8.175,6.96,8.107,6.899,8.147
	C6.847,8.149,6.747,8.224,6.745,8.211c0.067-0.057,0.153-0.109,0.24-0.113C7.082,8.092,7.18,8.093,7.277,8.099
	c0.089-0.013,0.148-0.106,0.241-0.096C7.467,8.057,7.4,8.145,7.338,8.208c-0.055,0.021-0.085,0.1,0.001,0.083
	c0.08,0,0.157-0.024,0.22,0.027c0.062,0.059,0.136-0.045,0.076-0.074c0.006-0.052,0.07-0.153-0.033-0.125
	c-0.06,0.039-0.09-0.054-0.033-0.077C7.597,7.967,7.68,7.866,7.586,7.802C7.584,7.72,7.445,7.75,7.444,7.653
	C7.469,7.57,7.42,7.478,7.398,7.394C7.345,7.376,7.292,7.46,7.236,7.481C7.157,7.534,7.08,7.432,7.151,7.367
	C7.145,7.311,7.062,7.293,7.035,7.24C6.974,7.23,6.904,7.238,6.84,7.209c-0.088,0.019-0.116,0.123-0.134,0.2
	c-0.03,0.045-0.157,0.06-0.075,0.127C6.647,7.62,6.557,7.681,6.487,7.707C6.414,7.725,6.347,7.761,6.353,7.846
	c0.002,0.076-0.081,0.142-0.139,0.136C6.131,7.9,6.239,7.809,6.256,7.736c-0.084-0.035-0.19-0.022-0.258-0.098
	C5.957,7.585,5.876,7.56,5.814,7.588C5.798,7.55,5.866,7.459,5.781,7.469c0.053-0.104,0.161-0.168,0.264-0.216
	c0.089-0.026,0.169-0.048,0.242-0.107C6.361,7.13,6.435,7.071,6.494,7.045C6.469,7.101,6.359,7.162,6.473,7.189
	C6.539,7.163,6.61,7.108,6.676,7.164C6.763,7.137,6.654,7.068,6.639,7.02C6.563,6.972,6.704,6.99,6.733,6.993
	c0.094-0.026,0.131-0.109,0.198-0.166c0.062-0.067-0.17-0.093-0.035-0.075c0.092,0.036,0.205-0.021,0.282,0.034
	c0.042,0.053,0.151,0.107,0.045,0.159C7.154,6.971,7.13,7.066,7.042,7.037C6.99,6.991,6.853,7.056,6.917,7.114
	C6.981,7.117,7.047,7.12,7.109,7.117c0.05,0.05,0.068,0.133,0.156,0.137c0.04,0.033,0.158,0.045,0.102-0.035
	C7.343,7.182,7.317,7.156,7.374,7.191C7.442,7.253,7.568,7.17,7.523,7.085C7.494,7.046,7.401,6.974,7.507,6.99
	c0.064-0.007,0.089,0.156,0.169,0.065c0.079-0.033,0.122-0.138,0.023-0.178C7.65,6.857,7.546,6.834,7.632,6.788
	c0.031-0.074-0.059-0.12-0.117-0.137C7.461,6.639,7.382,6.6,7.354,6.571c0.085-0.027-0.04-0.069-0.079-0.064
	C7.266,6.505,7.257,6.504,7.247,6.504z M6.21,6.753C6.166,6.755,6.045,6.778,6.072,6.827c0.051,0.012,0.201,0.039,0.179-0.04
	C6.238,6.775,6.221,6.768,6.21,6.753z M9.68,6.97c-0.056-0.003-0.131,0.1-0.029,0.067C9.724,7.024,9.616,7.096,9.68,7.111
	C9.644,7.178,9.806,7.16,9.856,7.174c0.066-0.035,0.138-0.056,0.209-0.077c0.1-0.025,0.02-0.144-0.051-0.123
	c-0.081,0.028-0.183-0.01-0.246,0.042C9.749,7,9.726,6.957,9.68,6.97z M11.922,7.035c0.048-0.003,0.152,0.002,0.073,0.061
	c-0.076,0.052-0.2,0.124-0.113,0.228c0.006,0.107,0.155,0.099,0.229,0.068c0.049-0.01,0.163-0.04,0.167,0.006
	c-0.063,0.074-0.158-0.01-0.235,0.036c-0.092,0.018-0.124,0.119-0.153,0.196c0.013,0.067-0.043,0.177-0.12,0.13
	c-0.054-0.014-0.117,0.017-0.171,0.034c-0.049,0.025-0.097,0.026-0.128-0.024c-0.039-0.019-0.109,0.043-0.056-0.02
	c0.019-0.036,0.003-0.096,0.037-0.034c0.071,0.056,0.095-0.056,0.164-0.043c0.045-0.065,0.005-0.179,0.106-0.199
	c0.071-0.052,0.017-0.104-0.038-0.137c-0.055-0.101,0.061-0.141,0.13-0.18C11.894,7.132,11.852,7.06,11.922,7.035z M10.522,7.486
	c-0.054,0.011-0.118,0.078-0.11,0.13c0.041,0.035-0.018,0.084,0.034,0.112c0.033,0.047,0.099,0.012,0.11,0.073
	c0.058,0.082-0.136,0.05-0.065,0.126c-0.029,0.017-0.069,0.054-0.007,0.063c0.051-0.004,0.05,0.012,0.002,0.026
	c-0.042,0.01-0.117,0.105-0.023,0.08c0.074-0.037,0.156-0.032,0.236-0.04c0.06-0.001,0.147-0.03,0.075-0.076
	c0.063-0.022,0.059-0.103-0.014-0.105c-0.032-0.084-0.096-0.146-0.138-0.225C10.642,7.619,10.69,7.58,10.63,7.55
	c-0.043,0.002-0.108,0.004-0.038-0.031C10.614,7.482,10.538,7.491,10.522,7.486z M10.321,7.723
	c-0.055,0.006-0.057,0.084-0.126,0.064C10.127,7.82,10.252,7.9,10.16,7.916c-0.047,0.067,0.067,0.115,0.11,0.053
	c0.072-0.011,0.137-0.045,0.129-0.131c0.086-0.041,0.015-0.138-0.063-0.115L10.321,7.723L10.321,7.723z M19.563,8.054
	C19.512,8.125,19.618,8.075,19.563,8.054z M19.565,8.124C19.516,8.16,19.612,8.156,19.565,8.124z M19.55,8.244
	C19.531,8.278,19.586,8.263,19.55,8.244z M19.538,8.314C19.514,8.348,19.578,8.322,19.538,8.314z M19.476,8.383
	C19.434,8.424,19.527,8.4,19.476,8.383z M19.019,8.428c-0.012,0.046,0.11,0.148,0.018,0.152c-0.03,0.058,0.027,0.124,0.065,0.146
	c0.066,0-0.015-0.106,0.065-0.064c0.044,0.027,0.106,0.05,0.109-0.022c0.031-0.018,0.104-0.018,0.053-0.073
	c-0.027-0.081-0.107-0.031-0.165-0.08C19.117,8.465,19.07,8.437,19.019,8.428z M19.391,8.438c-0.045,0.036,0.029,0.057,0.008,0.003
	L19.391,8.438L19.391,8.438z M19.338,8.501C19.303,8.535,19.393,8.516,19.338,8.501L19.338,8.501z M11.25,8.62
	c-0.074,0.011-0.031,0.08-0.018,0.113c-0.075,0.022-0.033,0.121-0.027,0.178c0.125,0.01,0.062-0.145,0.055-0.207
	C11.264,8.683,11.29,8.615,11.25,8.62z M19.161,8.72c-0.102,0.05,0.036,0.165,0.004,0.248c-0.016,0.043-0.059,0.094-0.096,0.063
	c-0.044,0.038,0.001,0.131-0.082,0.106c-0.096-0.01-0.186,0.049-0.207,0.144c-0.051,0.031-0.045,0.098,0.015,0.109
	c-0.007,0.077,0.112,0.145,0.113,0.038c0.023-0.079-0.032-0.126-0.101-0.147c0.09,0.041,0.197-0.127,0.254,0.001
	c0.039,0.074,0.099-0.012,0.109-0.049c0.046,0.028,0.077-0.024,0.117-0.03c0-0.065,0.056,0.048,0.063-0.037
	c0.001-0.088-0.05-0.168-0.049-0.253C19.281,8.833,19.237,8.755,19.161,8.72z M12.776,9.156c-0.036,0.012-0.151,0.042-0.082,0.083
	C12.723,9.261,12.854,9.149,12.776,9.156z M12.153,9.161c-0.044,0.038,0.116,0.053,0.136,0.029
	C12.251,9.171,12.197,9.166,12.153,9.161z M18.984,9.246c-0.075-0.004-0.128,0.11-0.027,0.11C19.006,9.33,19.096,9.268,18.984,9.246
	z M18.391,9.919c-0.084,0.039-0.085,0.199,0.001,0.239c0.049-0.048,0.047-0.148,0.049-0.215C18.433,9.923,18.41,9.919,18.391,9.919z
	 M5.409,10.064c-0.074,0.01-0.176,0.028-0.201,0.11c0.06,0.03,0.151-0.085,0.222-0.011c0.092-0.001,0.16,0.061,0.228,0.108
	c-0.019,0.079,0.052,0.05,0.097,0.054c0.049,0.068,0.192-0.018,0.077-0.056c-0.065-0.033-0.13-0.067-0.181-0.121
	C5.575,10.115,5.496,10.063,5.409,10.064z M17.735,10.305c-0.123-0.008-0.072,0.193,0.028,0.128
	C17.806,10.394,17.832,10.283,17.735,10.305z M5.94,10.315c-0.07,0.013,0.072,0.096-0.021,0.091
	c-0.048-0.015-0.11,0.045-0.031,0.049c0.086,0.027,0.171,0.011,0.254-0.015c0.034-0.005,0.116,0.018,0.076-0.048
	c-0.078-0.05-0.164-0.077-0.257-0.074l-0.011-0.003L5.94,10.315L5.94,10.315z M6.342,10.411c-0.112,0.026,0.054,0.109,0.055,0.024
	C6.388,10.409,6.363,10.417,6.342,10.411z M18.459,10.413c-0.082,0.021,0.001,0.142-0.053,0.198
	c-0.02,0.086,0.062,0.138,0.119,0.159c0.067-0.004,0.139,0.084,0.201,0.065c0-0.1-0.103-0.106-0.171-0.12
	c-0.049-0.088,0.066-0.165-0.003-0.252C18.549,10.409,18.496,10.428,18.459,10.413z M18.469,10.777
	c-0.046,0.054,0.103,0.174,0.083,0.061C18.541,10.803,18.506,10.777,18.469,10.777z M18.655,10.834
	c-0.029,0.034,0.08,0.121,0.059,0.054C18.682,10.884,18.682,10.838,18.655,10.834z M18.733,10.861
	c-0.045,0.029,0.057,0.061,0.012,0.094c-0.018,0.05,0.084,0.168,0.071,0.063c0.001-0.033-0.069-0.079,0-0.043
	C18.86,10.937,18.795,10.833,18.733,10.861z M18.608,10.921c-0.044,0.036,0.007,0.162,0.045,0.072
	C18.697,10.958,18.636,10.93,18.608,10.921z M18.718,10.956c-0.068,0.009-0.119,0.146-0.028,0.15
	C18.71,11.069,18.766,10.986,18.718,10.956z M18.434,10.967c0.004,0.071-0.14,0.148-0.115,0.199
	C18.353,11.103,18.486,11.041,18.434,10.967L18.434,10.967z M18.843,11.073c-0.052,0.02-0.062,0.14-0.133,0.075
	c-0.053,0-0.149,0.134-0.057,0.126c0.035-0.057,0.106-0.021,0.1,0.041c0.016,0.058,0.14,0.116,0.122,0.011
	c-0.024-0.063,0.066-0.024,0.042-0.095C18.903,11.183,18.897,11.089,18.843,11.073z M18.301,11.268
	c-0.073,0.037-0.088,0.147-0.178,0.171c-0.051,0.062-0.088,0.137-0.178,0.144c-0.024,0.048-0.034,0.107-0.101,0.066
	c-0.1,0.007-0.058,0.14-0.05,0.209c0.053,0.045,0.038,0.134,0.09,0.176c0.06-0.009,0.103,0.072,0.157,0.007
	c0.03,0.002,0.058,0.026,0.088,0.025c0.012,0.08,0.095,0.017,0.13,0.002c0.002-0.061,0.024-0.115,0.03-0.174
	c0.102-0.021,0.03-0.167,0.145-0.16c-0.028-0.072-0.093-0.159-0.066-0.237c0.03-0.008,0.057-0.029,0.042-0.058
	c0.106-0.037-0.03-0.086-0.066-0.114C18.326,11.309,18.322,11.28,18.301,11.268z M16.911,11.373
	c-0.096,0.023,0.019,0.116,0.054,0.15c0.05,0.049,0.071,0.113,0.131,0.145c0.016,0.085,0.068,0.149,0.114,0.22
	c0.02,0.061,0.058,0.11,0.102,0.155c0.04,0.066,0.104,0.11,0.151,0.17c0.037,0.05,0.137,0.014,0.116-0.056
	c0.015-0.089,0.022-0.191-0.075-0.233c0-0.043-0.036-0.076-0.06-0.085c0.028-0.097-0.093-0.133-0.142-0.191
	c-0.095-0.038-0.155-0.134-0.233-0.202C17.041,11.383,16.965,11.392,16.911,11.373z M19.067,11.6c-0.052,0.024,0,0.089,0.012,0.022
	C19.08,11.615,19.08,11.594,19.067,11.6z M19.024,11.65c-0.055,0.016-0.039,0.19,0.026,0.101c0.063-0.013,0.047-0.108-0.008-0.065
	C19.037,11.675,19.04,11.654,19.024,11.65z M18.822,11.657c-0.055,0.085-0.161,0.046-0.247,0.033
	c-0.105,0.042-0.107,0.159-0.123,0.253c-0.038,0.047-0.047,0.111,0.011,0.144c0.006,0.044-0.026,0.185,0.056,0.119
	c0.034-0.06,0.019-0.134,0.022-0.192c0.041,0.035,0.028,0.202,0.119,0.129c-0.035,0.046,0.055,0.089,0.035,0.017
	c0.022-0.073-0.057-0.142-0.061-0.216c0.027-0.026,0.153-0.073,0.075-0.102c-0.052,0.022-0.102-0.014-0.137,0.038
	c-0.092-0.057,0-0.13,0.075-0.104c0.062,0.009,0.141,0.027,0.18-0.04C18.84,11.711,18.869,11.665,18.822,11.657z M19.196,11.802
	C19.186,11.846,19.244,11.807,19.196,11.802z M19.015,11.814c-0.085,0.006,0.01,0.109,0.026,0.03
	C19.031,11.836,19.031,11.817,19.015,11.814z M19.329,11.822c-0.043,0.015-0.111,0.027-0.135,0.055
	c0.033,0.039,0.092,0.047,0.126,0.088c0.034,0.003,0.085,0.002,0.023,0.02c-0.096-0.004-0.033,0.099,0.005,0.131
	c0.038,0.006,0.044-0.067,0.087-0.019c0.057,0.051,0.14,0.052,0.203,0.095c0.055,0.053,0.075,0.14,0.007,0.19
	c-0.024,0.088,0.086,0.032,0.124,0.021c0.059,0.064,0.176,0.141,0.246,0.045c0.022-0.107,0.164-0.078,0.191,0.008
	c0.026,0.067,0.089,0.122,0.165,0.104c0.032,0.017,0.133,0.066,0.11-0.007c-0.038-0.032-0.069-0.062-0.092-0.103
	c-0.06,0.014-0.067-0.088-0.113-0.118c0.006-0.029,0.086-0.053,0.024-0.093c-0.051-0.034-0.109-0.028-0.113-0.094
	c-0.062-0.068-0.139-0.122-0.229-0.145c-0.078-0.033-0.159-0.054-0.237-0.086c-0.07-0.045-0.134,0.026-0.184,0.07
	c-0.045,0.096-0.099-0.059-0.097-0.106C19.409,11.851,19.375,11.818,19.329,11.822z M19.009,11.894
	c-0.045,0.028,0.067,0.049,0.015,0.005L19.009,11.894L19.009,11.894z M19.543,11.911c-0.042,0.039,0.106,0.029,0.026,0.002
	C19.56,11.919,19.552,11.908,19.543,11.911z M19.159,11.919C19.103,11.975,19.223,11.939,19.159,11.919z M18.813,11.921
	c-0.022,0.04,0.08,0.04,0.097,0.068C18.956,11.88,18.861,11.954,18.813,11.921z M19.062,12.004
	c-0.073,0.024,0.027,0.067,0.064,0.051c0.032,0.026,0.119,0.031,0.066-0.027C19.153,12.008,19.105,12.008,19.062,12.004z
	 M20.531,12.006c0.001,0.045,0.133,0.064,0.114,0.145c0.059-0.034-0.032-0.116-0.078-0.136
	C20.556,12.01,20.544,12.007,20.531,12.006z M18.925,12.023c-0.092,0.076,0.15,0.093,0.072,0.008
	C18.972,12.037,18.95,12.019,18.925,12.023z M20.582,12.103c-0.032,0.036-0.076,0.127-0.159,0.101
	c-0.044-0.014-0.108,0.016-0.046,0.053c0.087,0.037,0.186,0,0.228-0.085C20.623,12.149,20.617,12.104,20.582,12.103z M20.765,12.176
	c-0.036,0.048,0.083,0.184,0.081,0.091C20.819,12.238,20.793,12.206,20.765,12.176z M19.446,12.211
	c-0.052,0.005-0.037,0.134,0.01,0.059C19.466,12.253,19.47,12.22,19.446,12.211z M17.599,12.231
	c-0.069,0.024-0.055,0.103,0.015,0.108c0.071,0.049,0.165,0.026,0.239,0.067c0.074,0.041,0.158,0.021,0.236,0.03
	c0.048,0.03,0.18-0.023,0.077-0.056c-0.032,0.007-0.103-0.045-0.103-0.035c0.079-0.062-0.06-0.057-0.102-0.055
	c-0.04-0.016-0.089-0.035-0.115,0.003C17.757,12.3,17.69,12.233,17.599,12.231L17.599,12.231z M20.887,12.29
	c-0.039,0.036,0.093,0.054,0.017,0.007l-0.009-0.005L20.887,12.29L20.887,12.29z M19.251,12.33
	c-0.042,0.002-0.039,0.092-0.004,0.029C19.252,12.352,19.259,12.338,19.251,12.33z M21.012,12.357
	c-0.039,0.028,0.131,0.097,0.052,0.026C21.048,12.372,21.031,12.363,21.012,12.357z M20.88,12.377
	C20.851,12.412,20.923,12.417,20.88,12.377z M20.934,12.392c-0.023,0.038,0.1,0.067,0.03,0.011
	C20.956,12.395,20.945,12.392,20.934,12.392z M18.234,12.395c-0.038,0.039-0.005,0.093,0.036,0.056c0.014,0.061,0.089,0.022,0.115,0
	c0.077,0.033,0.062-0.082-0.01-0.05c-0.054,0.024-0.089,0.023-0.132-0.008L18.234,12.395L18.234,12.395z M18.778,12.403
	C18.734,12.435,18.846,12.415,18.778,12.403L18.778,12.403z M18.887,12.403c-0.068,0-0.098,0.08-0.167,0.083
	c-0.062,0.044-0.001,0.119,0.05,0.055c0.039-0.064,0.167-0.054,0.175-0.126C18.928,12.403,18.906,12.404,18.887,12.403z
	 M18.509,12.405c-0.06-0.003-0.064,0.075,0.004,0.055c0.036,0.004,0.171,0.008,0.098-0.045
	C18.577,12.411,18.543,12.41,18.509,12.405z M18.713,12.412C18.651,12.444,18.775,12.435,18.713,12.412z M18.648,12.415
	C18.623,12.463,18.707,12.434,18.648,12.415z M21.143,12.417c-0.043,0.032,0.064,0.142,0.025,0.047
	C21.16,12.448,21.15,12.433,21.143,12.417z M21.102,12.467c-0.09,0.02,0.041,0.131,0.034,0.039
	C21.132,12.49,21.126,12.463,21.102,12.467z M18.451,12.482c-0.096,0.017,0.028,0.068,0.065,0.078
	C18.583,12.53,18.487,12.473,18.451,12.482z M21.184,12.56c-0.05,0.044,0.083,0.054,0.02,0.007l-0.011-0.006L21.184,12.56
	L21.184,12.56z M19.93,12.585c-0.047,0.049-0.064,0.136-0.09,0.204c-0.019,0.06-0.026,0.124-0.057,0.18
	c-0.001,0.077-0.077,0.167-0.137,0.073c-0.062-0.046-0.17-0.106-0.176-0.173c0.008-0.065,0.144-0.143,0.051-0.19
	c-0.084,0.015-0.172-0.025-0.251-0.055c-0.069-0.015,0.041,0.103-0.051,0.071c-0.095-0.012-0.136,0.105-0.182,0.166
	c0.046,0.053-0.044,0.034-0.064,0.015c-0.035-0.097-0.153-0.056-0.2,0.003c-0.004,0.047-0.103,0.033-0.066,0.096
	c-0.063-0.01-0.049,0.062-0.065,0.085c-0.032-0.092-0.116-0.005-0.102,0.062c-0.051,0.075-0.117,0.161-0.222,0.145
	c-0.081,0.047-0.179,0.047-0.254,0.107c-0.039,0.035-0.086,0.056-0.12,0.075c-0.008,0.095-0.084,0.183-0.041,0.274
	c-0.074-0.063-0.054,0.087-0.031,0.124c0.033,0.094,0.005,0.194,0.026,0.29c0.018,0.088-0.107,0.138-0.089,0.212
	c0.036,0.06,0.115,0.1,0.179,0.052c0.067-0.053,0.143-0.091,0.231-0.075c0.078,0.021,0.136-0.021,0.19-0.064
	c0.071-0.017,0.134-0.06,0.209-0.058c0.094-0.017,0.185-0.068,0.284-0.047c0.075,0.036,0.167,0.081,0.141,0.184
	c0.035,0.104,0.116-0.031,0.175-0.048c0.043-0.026-0.034,0.061-0.053,0.071c-0.068,0.057,0.022,0.062,0.052,0.043
	c-0.011,0.049,0.062,0.088,0.023,0.153c-0.017,0.073,0.068,0.085,0.118,0.103c0.07,0.065,0.147-0.083,0.193,0.006
	c0.068,0.069,0.134-0.055,0.208-0.055c0.098,0.008,0.145-0.084,0.187-0.157c0.066-0.042,0.082-0.126,0.149-0.167
	c0.07-0.065,0.168-0.119,0.197-0.214c0.055-0.092,0.113-0.189,0.107-0.297c-0.008-0.039,0.057-0.109,0.023-0.124
	c-0.042,0.04-0.045-0.095-0.09-0.111c-0.005-0.052-0.026-0.094-0.072-0.114c-0.009-0.086-0.041-0.178-0.125-0.219
	c-0.062-0.048-0.014-0.149-0.044-0.217c0.006-0.069-0.025-0.152-0.099-0.151c0.006-0.085-0.02-0.168-0.045-0.247l-0.006-0.007
	L19.93,12.585L19.93,12.585z M19.174,12.635c-0.085,0.023,0.035,0.074,0.025,0.005l-0.01-0.005L19.174,12.635L19.174,12.635z
	 M13.846,12.696c-0.039,0.056-0.084,0.121-0.121,0.185c-0.036,0.092-0.155,0.077-0.211,0.138c-0.064,0.079-0.01,0.175-0.026,0.263
	c-0.013,0.072-0.103,0.128-0.067,0.207c0.006,0.079,0.006,0.183,0.1,0.208c0.1,0.021,0.178-0.064,0.192-0.159
	c0.039-0.141,0.111-0.271,0.145-0.414c0.015-0.05,0.017-0.118,0.04-0.155c0.058-0.055-0.001-0.164-0.02-0.234
	C13.874,12.719,13.865,12.699,13.846,12.696z M19.533,12.821C19.473,12.857,19.576,12.875,19.533,12.821z M21.468,12.884
	c-0.06,0.038,0.08,0.195,0.035,0.089C21.472,12.951,21.492,12.903,21.468,12.884z M21.557,12.921
	c-0.054,0.013,0.006,0.124,0.009,0.036C21.565,12.948,21.572,12.923,21.557,12.921z M21.543,13.03
	C21.517,13.069,21.594,13.056,21.543,13.03z M21.537,13.101C21.493,13.143,21.582,13.135,21.537,13.101z M21.555,13.178
	C21.531,13.212,21.6,13.198,21.555,13.178z M21.563,13.238C21.527,13.271,21.611,13.26,21.563,13.238z M21.575,13.287
	C21.565,13.323,21.618,13.29,21.575,13.287z M21.214,13.293c0.003,0.062,0.069,0.123,0.123,0.16c0.063-0.015-0.044-0.094-0.07-0.121
	C21.25,13.319,21.237,13.299,21.214,13.293z M21.378,14.349c-0.045,0.055-0.012,0.14-0.022,0.207
	c0.001,0.089-0.096,0.117-0.141,0.168c0.034,0.039,0.043,0.076-0.006,0.113c-0.035,0.091,0.119-0.004,0.152-0.036
	c0.044-0.091,0.144-0.101,0.21-0.172c0.049-0.069-0.045-0.044-0.077-0.033c-0.058-0.011,0.01-0.099-0.069-0.084
	C21.473,14.452,21.446,14.371,21.378,14.349z M19.136,14.445c-0.089,0.024,0.061,0.031,0.016,0L19.136,14.445L19.136,14.445z
	 M19.419,14.803c-0.066,0.035-0.079,0.141-0.07,0.209c0.047,0.073,0.142-0.017,0.185-0.058c0.034-0.035,0.133-0.154,0.025-0.137
	C19.509,14.823,19.466,14.824,19.419,14.803z M21.077,14.803c-0.073,0.04-0.14,0.095-0.207,0.15
	c-0.061,0.056-0.147,0.061-0.218,0.099c-0.062,0.044-0.131,0.073-0.194,0.116c-0.085,0.053,0.013,0.083,0.071,0.084
	c0.074-0.003,0.142-0.05,0.201-0.092c0.058-0.078,0.155-0.075,0.233-0.117c0.06-0.062,0.15-0.096,0.193-0.174
	C21.187,14.788,21.099,14.854,21.077,14.803L21.077,14.803z M8.299,16.164C8.312,16.197,8.367,16.152,8.299,16.164z M8.368,16.17
	C8.37,16.189,8.387,16.173,8.368,16.17z M8.201,16.22c-0.057-0.009-0.045,0.048-0.023,0.014C8.186,16.246,8.229,16.224,8.201,16.22z
	 M8.152,16.244C8.112,16.249,8.186,16.258,8.152,16.244z M8.124,16.25C8.107,16.269,8.159,16.254,8.124,16.25z M8.064,16.259
	c-0.033,0.028,0.109,0.01,0.016,0.005L8.064,16.259L8.064,16.259z M8.122,16.259C8.09,16.266,8.141,16.269,8.122,16.259z
	 M8.045,16.275C8.024,16.3,8.076,16.269,8.045,16.275z M8.002,16.287C7.973,16.297,7.999,16.317,8.002,16.287z M8.092,16.287
	C8.07,16.29,8.106,16.303,8.092,16.287z M8.316,16.294C8.281,16.309,8.361,16.307,8.316,16.294z M8.359,16.304
	c-0.056-0.003-0.04,0.033,0.007,0.014C8.414,16.33,8.382,16.302,8.359,16.304z M8.025,16.311
	C7.997,16.317,8.048,16.319,8.025,16.311L8.025,16.311z M8.271,16.311c-0.055,0.019-0.107,0.05-0.151,0.064
	c0.007,0.024-0.028,0.012-0.022,0.028c-0.03,0.014-0.036,0.002-0.031,0.02c-0.047-0.013,0.004,0.034-0.059,0.009
	c-0.021,0.021,0.041,0.044-0.003,0.044c-0.024,0.004,0.027,0.035-0.017,0.017c-0.022,0.011-0.059,0.043-0.044,0.069
	c-0.058-0.016-0.026,0.051,0.002,0.041c0.037-0.022,0.013,0.017,0.019,0.031c0.049,0.012-0.007,0.015,0.038,0.046
	C7.947,16.675,8.08,16.701,8,16.714c-0.055-0.009-0.06,0.001-0.02,0.032c0.053,0.028,0.101,0.083,0.15,0.116
	c0.102,0.067-0.067,0.102-0.124,0.096c-0.064,0.012-0.121,0.023-0.184,0.028C7.768,17,7.763,16.951,7.698,16.98
	c-0.035-0.013-0.109-0.045-0.128-0.032c0.041,0.023-0.04,0.007,0.006,0.037c-0.067,0.015-0.144-0.008-0.213-0.016
	c-0.042-0.046-0.084-0.002-0.145-0.02c-0.024-0.003-0.061-0.05-0.082-0.031c0.068,0.044-0.077,0.039-0.103,0.032
	c-0.087,0-0.17,0.009-0.258-0.002c-0.052-0.028-0.162,0.005-0.228-0.013c-0.038-0.038-0.081,0.002-0.016,0.016
	c0.06,0.017,0.171-0.002,0.202,0.028c-0.043,0.02-0.149-0.023-0.151,0.003c0.063,0.017,0.12,0.043,0.183,0.051
	c-0.015,0.01,0.034,0.011-0.007,0.012c0.036,0.001,0.109,0.03,0.032,0.027c-0.065,0.004-0.129-0.025-0.196-0.013
	c-0.08,0.028-0.162-0.003-0.241,0.014C6.3,17.071,6.35,17.021,6.28,17.012c-0.044-0.014-0.069,0-0.038,0.016
	c0.08,0.03-0.095,0.024-0.067-0.006c-0.032,0.004-0.087-0.058-0.104-0.015c0.065,0.024-0.075,0.025-0.107,0.015
	c-0.043-0.016-0.037,0.029-0.095,0.014c-0.122,0.012-0.245-0.009-0.367,0.001c-0.081,0.014-0.165,0-0.247,0.003
	c-0.059-0.03-0.115,0.001-0.144,0.018c-0.066-0.016-0.086,0.05-0.158,0.021c-0.001,0.015-0.066,0.003-0.059,0.019
	c-0.031,0.001-0.103,0.016-0.031,0.028c0.091,0.016-0.053,0.005-0.085-0.008c-0.04-0.011-0.079,0.026-0.013,0.022
	c0.057-0.01,0.174,0.005,0.171,0.021c0.051,0.007,0.034,0.012-0.007,0.006c0.031,0.006,0.085,0.041,0.017,0.021
	c-0.034-0.008-0.024,0.009-0.072-0.016c-0.077-0.01-0.002,0.027,0.033,0.02c-0.027,0.004-0.014,0.015-0.052,0.008
	c0.057,0.031-0.097-0.016-0.132-0.013c-0.038,0.017-0.142-0.032-0.211-0.012c0.056,0.031-0.141-0.026-0.031,0.014
	c0.056,0.059,0.145,0.047,0.218,0.039c0.044-0.007,0.084,0.031,0.015,0.026c-0.02,0.014,0.087,0.021,0.117,0.029
	c0.152,0.013,0.305,0.028,0.456,0.055c0.051,0.006,0.07,0.025,0.023,0.054c-0.03,0.02-0.14-0.006-0.202-0.006
	c-0.041-0.002-0.132-0.021-0.142,0.009c0.085,0.005,0.142,0.014,0.212,0.041c0.074,0.004,0.132,0.018,0.184,0.058
	c0.06,0.038,0.137,0.033,0.206,0.043c0.149,0.007,0.299,0.016,0.448,0.014c0.126,0.017-0.066,0.023-0.111,0.014
	c-0.074,0.001-0.15-0.015-0.223-0.001c-0.051,0.023-0.16-0.007-0.234,0.008c-0.16,0.005-0.32-0.014-0.479-0.02
	c-0.037-0.002-0.127-0.017-0.13-0.008c0.171,0.06,0.344,0.117,0.52,0.158c1.509,0.004,3.017,0.006,4.526,0.01
	c2.718,0.005,5.435,0.012,8.153,0.016c0.088,0.011,0.171-0.016,0.254-0.041c0.126-0.036,0.25-0.076,0.374-0.119
	c-0.092-0.002-0.183-0.009-0.275-0.005c-0.041-0.006-0.098-0.009-0.093-0.015c-0.066-0.002-0.155-0.013-0.237-0.017
	c0.067-0.009-0.071-0.022-0.106-0.014c-0.103,0.005,0.115-0.014,0.017-0.019c-0.073,0.002,0.054-0.01-0.025-0.011
	c-0.006-0.004-0.017-0.011-0.022-0.016c-0.035-0.003-0.041,0.002-0.015-0.014c-0.022-0.021-0.03-0.019-0.075-0.026
	c0.034,0,0.148-0.014,0.056-0.014c-0.043-0.004,0.062-0.014,0.002-0.021c0.033,0.004,0.083-0.013,0.02-0.006
	c-0.007-0.002,0.101-0.014,0.015-0.012c-0.038,0.013-0.1-0.007-0.028-0.01c0.038,0.005,0.147-0.019,0.053-0.011
	c-0.021-0.009,0.133-0.017,0.116-0.045c0.075-0.012,0.148-0.011,0.222-0.028c0.045-0.016,0.139,0.009,0.137-0.009
	c-0.056,0.014-0.01-0.03-0.016-0.021c-0.045,0.017-0.006-0.008-0.055,0.003c0.031,0.001,0.088-0.036,0.022-0.025
	c0.028,0.002,0.076-0.045,0.022-0.042c0.078-0.007,0.072-0.047,0.144-0.064c0.045-0.051,0.113-0.046,0.17-0.067
	c0.056,0.01,0.091-0.046,0.147-0.04c-0.014-0.015,0.084-0.017,0.114-0.028c0.039,0.004,0.082,0,0.136-0.028
	c0.025-0.006,0.142-0.049,0.086-0.042c0.032-0.019,0.134-0.032,0.113-0.061c-0.039,0.041-0.074-0.026-0.081-0.039
	c-0.06,0.01,0.012-0.015-0.047-0.002c-0.042-0.019-0.104,0.001-0.137-0.013c-0.002-0.034-0.043,0.009-0.043-0.017
	c-0.055,0.011-0.025-0.038-0.07-0.052c-0.027-0.004-0.043-0.021-0.049-0.025c-0.028,0.026-0.159,0.008-0.094-0.022
	c0.022-0.024-0.035-0.022-0.043,0.008c-0.045,0.014-0.096-0.007-0.145,0.007c0.038-0.023,0.045-0.038-0.005-0.03
	c-0.02-0.01-0.098-0.005-0.045-0.033c-0.024-0.024-0.112,0.041-0.071-0.007c-0.013-0.024-0.086-0.008-0.024-0.029
	c0.061-0.046-0.05,0.004-0.042-0.025c-0.044-0.003-0.112-0.013-0.178-0.022c-0.075-0.015-0.155-0.019-0.221-0.043
	c0.062-0.007,0.093-0.107,0.015-0.055c-0.032,0.036-0.042,0.083-0.106,0.061c-0.075,0.016-0.157-0.012-0.224,0.035
	c-0.028,0.049-0.166,0.025-0.114-0.014c-0.054-0.031-0.107,0.041-0.148,0.005c-0.064,0.034-0.08-0.022-0.152,0.013
	c-0.083,0.003-0.189,0.043-0.243-0.025c-0.049,0.014-0.069,0.008-0.084-0.035c-0.083-0.019-0.159,0.028-0.232,0.057
	c-0.069,0.025-0.076-0.029-0.147-0.02c-0.078-0.017-0.158-0.046-0.239-0.024c-0.057-0.013-0.132,0.081-0.167,0.034
	c-0.071,0.003-0.125,0.007-0.209,0c-0.09,0.011-0.182-0.012-0.272,0.012c-0.033,0.014,0.008-0.085-0.04-0.027
	c-0.05,0.056-0.141,0.053-0.211,0.05c-0.063,0.006-0.113,0.001-0.165,0.025c0.043,0.013-0.066,0.024-0.093,0.028
	c-0.096-0.001-0.118,0.073-0.198,0.082c-0.067,0.022-0.12,0.027-0.185,0.039c-0.058,0.013-0.074,0.053-0.134,0.068
	c-0.041,0.06-0.119,0.081-0.192,0.089c-0.056-0.004-0.044-0.026-0.008-0.048c-0.005-0.019,0.129-0.037,0.096-0.078
	c-0.011,0.005-0.06,0.051-0.036,0.005c-0.06,0.014,0.022-0.059,0.047-0.025c0.034-0.014,0.016-0.028,0.018-0.039
	c0.015-0.006,0.067,0.003,0.032-0.021c0.036-0.007,0.007-0.028,0.054-0.033c-0.004-0.035,0.016-0.069-0.042-0.043
	c-0.087-0.003-0.173-0.019-0.259-0.023c-0.058,0.007-0.171-0.008-0.202-0.018c-0.032-0.018-0.148-0.015-0.07-0.048
	c-0.071-0.034-0.147-0.061-0.229-0.041c-0.058,0.007-0.153,0.049-0.114,0.081c-0.062,0.004-0.065-0.037-0.118,0.001
	c0.092,0.016-0.077,0.054-0.055,0.018c0.023-0.011-0.062-0.029-0.052,0.01c-0.085,0.013-0.17,0.034-0.255,0.055
	c-0.059,0.005-0.09,0.042-0.117,0.075c-0.045,0.031-0.039,0.005-0.047-0.005c-0.002,0.042-0.061-0.002-0.045-0.001
	c0.063-0.032-0.027-0.001-0.05,0.004c-0.038-0.016,0.034-0.014-0.02-0.025c-0.037-0.014-0.097-0.089-0.119-0.017
	c-0.059,0.039-0.128,0.06-0.199,0.057c-0.101,0.024-0.206,0.028-0.309,0.04c-0.079-0.006-0.158-0.016-0.235-0.031
	c-0.064,0-0.127,0.03-0.19,0.009c-0.08,0.007-0.15,0.061-0.227,0.003c-0.037-0.015-0.052-0.013-0.036,0.01
	c-0.036,0.003-0.07-0.029-0.105,0.012c-0.096,0.004-0.195,0.013-0.287,0.043c-0.051,0.041-0.064-0.012-0.12,0.008
	c-0.04-0.035-0.149,0.024-0.189-0.015c0.088-0.058-0.123-0.013-0.056,0.032c-0.062,0.031-0.119-0.087-0.142-0.041
	c0.022,0.008-0.061,0.071-0.06,0.014c-0.09,0.009,0.082,0.046-0.007,0.073c-0.053,0.025-0.13,0.009-0.081,0.039
	c-0.041,0.011-0.098-0.003-0.118,0.043c0.037-0.012,0.035,0.001,0,0.008c0.035,0.021,0.148-0.024,0.124,0.004
	c-0.046,0.016-0.162,0.043-0.146,0.093c0.001,0.02-0.092-0.002-0.127,0.019c-0.076,0.001-0.154,0.002-0.229,0.021
	c-0.061,0.002-0.175,0.048-0.256,0.06c-0.003,0.002-0.173,0.069-0.064,0.094c0.073,0.014,0.146,0.027,0.219,0.008
	c0.033-0.004,0.184-0.025,0.09,0c-0.032,0.006-0.096,0.03-0.028,0.029c0.05-0.008,0.093,0.037,0.018,0.034
	c-0.09,0.003-0.18,0.016-0.27,0.024c-0.081,0.015-0.173-0.001-0.244,0.044c-0.156-0.004-0.314-0.004-0.469,0.019
	c-0.058,0.03-0.112,0.038-0.162,0.006c-0.171-0.02-0.341-0.046-0.512-0.064c-0.09-0.008-0.183-0.009-0.269-0.041
	c-0.05-0.011-0.176,0.001-0.177-0.02c0.027,0.006,0.162,0.02,0.108-0.025c-0.061-0.013-0.127-0.01-0.189-0.008
	c0.056,0.044-0.062-0.019-0.094-0.008c-0.042-0.007-0.171-0.061-0.064-0.044c0.078,0.016,0.164,0.049,0.241,0.017
	c-0.058-0.048-0.147-0.013-0.215-0.042c0.088,0.012-0.062-0.02,0.019-0.014c0.094,0.02,0.192,0.013,0.286,0.03
	c0.052,0.007,0.073-0.047,0.006-0.037c-0.096,0.011-0.185-0.034-0.273-0.066c0.006-0.059,0.112,0.017,0.164,0.015
	c0.077-0.012,0.183,0.037,0.239-0.016c0.075-0.008,0.156-0.018,0.222-0.052c-0.035,0-0.077-0.009-0.018-0.011
	c0.033-0.015-0.074-0.008-0.004-0.016c0.001-0.015-0.024-0.022,0.016-0.01c0.063,0.041,0.006-0.03,0.045-0.038
	c-0.06-0.022-0.014,0.001,0-0.018c0-0.025-0.076-0.019-0.064-0.033c-0.023-0.016,0.066,0.01,0.068,0.001
	c0.032-0.011-0.015-0.034-0.032-0.022c-0.029-0.027-0.081-0.017-0.045-0.039c0.014-0.019-0.156-0.013-0.045-0.022
	c0.062-0.031-0.077-0.005-0.002-0.032c0.015-0.006-0.042-0.046-0.066-0.035c-0.022-0.01,0.045-0.023-0.02-0.019
	c-0.051-0.014,0.023-0.023-0.035-0.037c-0.02-0.047-0.113-0.043-0.098-0.074c0.026,0.005-0.071-0.024-0.008-0.025
	c0.08,0-0.096-0.012-0.025,0.022c0.051,0.008-0.093,0.007-0.063-0.02c-0.055,0.002,0.04-0.033-0.028-0.019
	c-0.014-0.007-0.019-0.032-0.029-0.053c0.054,0.007-0.019-0.043,0.049-0.025c0.025-0.004-0.046-0.026,0-0.039
	c-0.031-0.036,0.094,0.056,0.06,0.005c-0.059-0.02,0.022-0.019,0.04,0.002c-0.032-0.032,0.068-0.006,0.019-0.033
	c-0.005,0.009-0.103,0.024-0.067-0.025c0.019,0-0.044-0.021,0.002-0.028c0.02-0.024,0.072-0.055,0.077-0.047
	c0.005-0.017,0.06,0.028,0.031-0.016C8.221,16.3,8.382,16.359,8.271,16.311z M4.816,17.125C4.892,17.133,4.748,17.1,4.816,17.125z
	 M8.351,16.322C8.313,16.34,8.388,16.333,8.351,16.322z M8.109,16.341C8.113,16.37,8.131,16.343,8.109,16.341z M8.282,16.349
	C8.263,16.363,8.343,16.349,8.282,16.349L8.282,16.349z M8.259,16.351c-0.052,0.041,0.111,0.05,0.034,0.015
	C8.28,16.365,8.278,16.364,8.259,16.351z M8.064,16.362C8.06,16.381,8.08,16.354,8.064,16.362z M8.042,16.366
	c-0.022,0.038,0.046,0.031,0.014,0.003L8.042,16.366L8.042,16.366z M8.002,16.379c-0.059,0.024,0.011,0.06,0.037,0.02
	C8.009,16.405,8.021,16.382,8.002,16.379z M16.232,16.382c-0.069,0.036,0.085,0.059,0.018,0.007l-0.008-0.004L16.232,16.382
	L16.232,16.382z M8.324,16.389C8.281,16.405,8.356,16.399,8.324,16.389z M8.027,16.412C7.989,16.417,8.041,16.437,8.027,16.412z
	 M8.221,16.437C8.203,16.454,8.255,16.435,8.221,16.437z M16.452,16.456C16.43,16.498,16.506,16.463,16.452,16.456z M7.93,16.462
	C7.892,16.492,7.957,16.493,7.93,16.462z M16.344,16.471c-0.059,0.001-0.042,0.036,0.004,0.017
	C16.358,16.484,16.354,16.47,16.344,16.471z M15.9,16.491C15.881,16.5,15.925,16.498,15.9,16.491L15.9,16.491z M16.322,16.499
	C16.295,16.501,16.319,16.506,16.322,16.499z M7.908,16.503C7.891,16.511,7.927,16.521,7.908,16.503L7.908,16.503z M16.292,16.516
	C16.273,16.529,16.319,16.511,16.292,16.516z M16.085,16.518C16.043,16.536,16.138,16.523,16.085,16.518z M16.275,16.521
	l-0.007,0.003L16.275,16.521L16.275,16.521z M19.383,16.529C19.357,16.536,19.375,16.56,19.383,16.529z M7.875,16.534
	c-0.072,0.032,0.003,0.111,0.018,0.053C7.905,16.572,7.874,16.561,7.875,16.534z M7.892,16.543
	C7.897,16.57,7.919,16.541,7.892,16.543z M16.212,16.551C16.181,16.559,16.19,16.57,16.212,16.551z M19.374,16.559
	C19.355,16.574,19.401,16.555,19.374,16.559z M14.572,16.594C14.584,16.624,14.61,16.595,14.572,16.594z M7.932,16.599
	C7.884,16.617,7.977,16.611,7.932,16.599z M8.065,16.601C8.041,16.61,8.089,16.598,8.065,16.601z M19.396,16.606
	C19.327,16.65,19.43,16.602,19.396,16.606z M7.953,16.614C7.939,16.615,7.964,16.627,7.953,16.614z M8.296,16.67
	C8.278,16.679,8.314,16.67,8.296,16.67z M7.822,16.676c-0.048-0.007-0.072,0.04-0.015,0.049c0.017,0.033,0.077,0.046,0.014,0.063
	c0.025,0.012,0.12,0.013,0.103,0.036c-0.021,0-0.109-0.008-0.095,0.005c0.062,0.019-0.009,0-0.021,0.012
	c0.048,0.035-0.075-0.026-0.021,0.018c-0.106-0.023,0.009,0.051,0.052,0.02c-0.048-0.023,0.035,0.007,0.048-0.022
	c0.03,0.024,0.115,0.018,0.035,0.033c0.03,0.008,0.104-0.002,0.032,0.013c-0.034-0.016-0.118,0-0.037,0.014
	c0.055-0.006,0.166,0.022,0.165-0.042c-0.013-0.053-0.081-0.095-0.131-0.122C7.908,16.726,7.87,16.684,7.822,16.676z M8.251,16.698
	c-0.027,0.009,0.064,0.064,0.02,0.013l-0.009-0.008L8.251,16.698L8.251,16.698z M18.793,16.708
	C18.77,16.724,18.822,16.708,18.793,16.708L18.793,16.708z M18.812,16.713C18.807,16.731,18.84,16.709,18.812,16.713z M7.763,16.721
	C7.721,16.745,7.852,16.738,7.763,16.721z M7.666,16.741C7.568,16.757,7.766,16.777,7.666,16.741L7.666,16.741z M8.321,16.75
	C8.313,16.761,8.335,16.753,8.321,16.75z M12.021,16.758c-0.038,0.028,0.078,0.002,0.012-0.001L12.021,16.758z M11.887,16.763
	C11.834,16.771,11.933,16.777,11.887,16.763L11.887,16.763z M11.178,16.773l0.007,0.002L11.178,16.773L11.178,16.773z M11.126,16.78
	C11.085,16.796,11.179,16.786,11.126,16.78z M8.371,16.785C8.328,16.799,8.417,16.799,8.371,16.785z M11.426,16.785
	C11.38,16.802,11.465,16.799,11.426,16.785z M10.979,16.786C10.942,16.798,11.02,16.796,10.979,16.786L10.979,16.786z M7.731,16.793
	c-0.004,0.009-0.132,0.024-0.049,0.033C7.713,16.826,7.842,16.804,7.731,16.793z M11.123,16.798
	c-0.051,0.033,0.103,0.028,0.03,0.005L11.137,16.8L11.123,16.798L11.123,16.798z M11.385,16.798
	C11.368,16.811,11.401,16.802,11.385,16.798z M10.897,16.801C10.874,16.805,10.92,16.805,10.897,16.801z M8.386,16.81
	C8.389,16.832,8.446,16.82,8.386,16.81z M11.31,16.821C11.289,16.824,11.319,16.835,11.31,16.821z M6.634,16.862
	c-0.018,0.02,0.058,0.025-0.002,0.017c-0.045,0.004-0.068-0.016-0.132-0.001c0.004,0.026,0.141,0.01,0.159,0.027
	c0.044,0.001,0.161,0.019,0.148-0.009c-0.035-0.002-0.033,0.002-0.002-0.007c-0.023,0.002-0.095,0.004-0.037-0.012
	c-0.051-0.033-0.044,0.028-0.09-0.007C6.735,16.915,6.659,16.865,6.634,16.862z M7.615,16.895c-0.052,0.008,0.101,0.028,0.026,0.002
	l-0.013-0.002L7.615,16.895L7.615,16.895z M6.866,16.908C6.814,16.929,6.92,16.911,6.866,16.908z M7.045,16.908
	c-0.051,0.002,0.081,0.071,0.018,0.005l-0.009-0.004L7.045,16.908L7.045,16.908z M6.626,16.91c-0.058,0.029,0.134,0.014,0.035,0.004
	C6.649,16.915,6.638,16.91,6.626,16.91z M6.953,16.912C6.93,16.908,6.942,16.924,6.953,16.912z M6.733,16.915
	C6.697,16.928,6.773,16.916,6.733,16.915z M6.937,16.927C6.913,16.934,6.96,16.929,6.937,16.927z M7.125,16.928
	C7.087,16.961,7.19,16.929,7.125,16.928z M7.795,16.928c0.005,0.012-0.023,0.033,0.027,0.037c0.056,0.024,0.063,0.01,0.033-0.028
	C7.836,16.928,7.815,16.925,7.795,16.928z M6.434,16.935c-0.031,0.015,0.075,0.022,0.009,0.002L6.434,16.935L6.434,16.935z
	 M7.895,16.948C7.865,16.963,7.921,16.969,7.895,16.948z M5.449,16.95c-0.039,0.025,0.081,0.028,0.108,0.042
	c0.032,0.019,0.153,0.02,0.063-0.009C5.563,16.972,5.508,16.953,5.449,16.95z M6.239,16.95c-0.018,0.054,0.111,0.051,0.152,0.068
	C6.465,16.998,6.284,16.96,6.239,16.95L6.239,16.95z M7.698,16.95C7.645,16.962,7.755,16.969,7.698,16.95z M5.691,16.97
	c-0.085-0.004,0.031,0.029,0.055,0.047c0.029-0.001,0.157-0.001,0.115-0.034C5.804,16.986,5.748,16.978,5.691,16.97z M5.582,16.975
	C5.578,16.985,5.548,16.97,5.582,16.975z M19.092,16.98c-0.052,0.012-0.01,0.024,0.012,0H19.092L19.092,16.98z M5.99,16.988
	C5.895,17,6.04,17.026,5.99,16.988z M5.487,17.01c-0.04,0.015,0.109,0.029,0.018,0l-0.009,0L5.487,17.01L5.487,17.01z M5.982,17.01
	C5.96,17.026,6.009,17.008,5.982,17.01z M5.32,17.012c-0.025,0.026,0.106,0.014,0.015,0H5.32L5.32,17.012z M10.365,17.012
	c-0.044,0.02-0.049,0.021,0,0.032c0.053,0.027-0.008-0.006,0.004-0.027L10.365,17.012z M5.292,17.017
	C5.263,17.025,5.321,17.02,5.292,17.017z M4.915,17.08C4.88,17.081,4.945,17.088,4.915,17.08z M4.811,17.084
	C4.794,17.101,4.878,17.09,4.811,17.084L4.811,17.084z M4.813,17.144C4.854,17.159,4.857,17.143,4.813,17.144z M4.828,17.144
	l0.015,0.002L4.828,17.144L4.828,17.144z M4.716,17.149C4.714,17.166,4.771,17.141,4.716,17.149z M4.789,17.15
	c-0.034,0.01,0.073,0.007,0.012,0H4.789L4.789,17.15z M4.896,17.157C4.876,17.173,4.953,17.158,4.896,17.157L4.896,17.157z
	 M4.751,17.16c-0.068,0.007,0.133,0.023,0.034,0.003l-0.017-0.002L4.751,17.16L4.751,17.16z M4.819,17.162
	C4.756,17.169,4.887,17.17,4.819,17.162z M4.908,17.177C4.88,17.179,4.935,17.185,4.908,17.177z M4.756,17.179
	c-0.01,0.017,0.089,0.005,0.012,0L4.756,17.179L4.756,17.179z M4.831,17.182C4.812,17.189,4.888,17.187,4.831,17.182L4.831,17.182z
	 M4.865,17.19C4.836,17.191,4.89,17.198,4.865,17.19z M18.568,17.205c-0.045,0.005-0.063,0.034-0.059,0.035
	c0.039-0.024,0.124,0.008,0.136-0.024C18.616,17.205,18.582,17.227,18.568,17.205z M9.306,17.229
	c-0.07-0.011-0.139,0.045-0.102,0.095c-0.019,0.035-0.137,0.019-0.104,0.058c0.092,0.016,0.186-0.009,0.279-0.008
	c0.049-0.001,0.142-0.011,0.126-0.03c0.082-0.025-0.099-0.044-0.021-0.046c-0.01-0.028-0.125-0.006-0.062-0.026
	c0.086-0.009-0.055-0.051-0.085-0.042l-0.016-0.001L9.306,17.229L9.306,17.229z M18.499,17.252
	C18.408,17.266,18.533,17.269,18.499,17.252z M8.444,17.254c-0.04-0.002-0.193,0.039-0.093,0.066
	C8.369,17.327,8.478,17.264,8.444,17.254z M18.441,17.256C18.382,17.277,18.499,17.263,18.441,17.256z M9.59,17.261
	c-0.046,0-0.065,0.009-0.008,0.006c0.039-0.001,0.136,0.009,0.135,0.003C9.674,17.266,9.632,17.265,9.59,17.261z M8.792,17.321
	c-0.033,0.007-0.019,0.047-0.074,0.034c-0.047,0.01-0.133-0.019-0.152-0.002c0.08,0.023,0.166,0.01,0.248,0.029
	C8.884,17.384,8.832,17.313,8.792,17.321z"/>
</svg>
