<?xml version="1.0" encoding="utf-8"?>
<!-- Generator: Adobe Illustrator 17.0.0, SVG Export Plug-In . SVG Version: 6.00 Build 0)  -->
<!DOCTYPE svg PUBLIC "-//W3C//DTD SVG 1.1//EN" "http://www.w3.org/Graphics/SVG/1.1/DTD/svg11.dtd">
<svg version="1.1" id="Layer_1" xmlns="http://www.w3.org/2000/svg" xmlns:xlink="http://www.w3.org/1999/xlink" x="0px" y="0px"
	 width="40px" height="40px" viewBox="215.205 101.585 40 40" enable-background="new 215.205 101.585 40 40" xml:space="preserve">
<path fill="#888888" d="M231.917,112.53l-2.811,0.479l0.215,0.142l0.431,0.042l0.042,0.314l0.177,0.14l-0.275,0.25l-0.044,0.321
	l0.113,0.406l0.256,0.091l0.255-0.153l0.213-0.26l1.509-0.561l-0.084-0.129l0.202-0.065l-0.068-0.132l0.358-0.163l0.07-0.17
	l-0.018-0.128l0.601-0.287l-0.482-0.018l-0.146-0.071L231.917,112.53L231.917,112.53z M229.043,112.572l-0.677,0.1l-0.027,0.079
	l0.092,0.064l-0.608,0.266l0.54,0.043l1.491-0.439l0.097-0.085L229.043,112.572L229.043,112.572z M228.068,112.72l-0.26,0.218
	l0.436-0.035l0.044-0.11L228.068,112.72L228.068,112.72z M227.169,112.844l0.061,0.133l0.075-0.091L227.169,112.844L227.169,112.844
	z M227.496,112.912l0.141,0.041L227.496,112.912L227.496,112.912z M226.529,112.949l-0.075,0.079l0.122-0.078L226.529,112.949
	L226.529,112.949L226.529,112.949z M240.615,112.991l-0.748,0.176l-0.16,0.147l-0.335,0.037l-0.041,0.117l-0.282-0.031l-0.097,0.05
	l-0.373,0.014l-0.034,0.169l0.211,0.185l-0.541-0.148l-0.079,0.103l-0.729,0.075l-0.184,0.113l-0.076-0.075l-0.232-0.061
	l0.065,0.176l-0.282,0.146l-0.16-0.016l-0.007,0.12l-0.242-0.207l0.389,0.018l-0.016-0.212l-1.102-0.279l-0.692,0.255l-0.282,0.322
	l-0.345,0.214l-0.223,0.263l0.17,0.301l0.295-0.131l0.156,0.245l-0.108,0.201l-0.019,0.079l-0.034-0.353l-0.217,0.25l-0.065,0.159
	l-0.523,0.383l-0.273,0.075l-0.132,0.098l-0.094,0.139l0.212,0.379l-0.708,0.144l-0.045,0.613l0.264,0.191l0.372-0.035l0.683-0.785
	l0.398-0.097l0.593,0.487l-0.228,0.292l0.22,0.006l0.221-0.305l-0.021-0.117l-0.314-0.195l-0.128-0.297l0.59,0.408l0.154,0.375
	l0.226,0.234l-0.029-0.183l0.078-0.111l0.038-0.164l0.226,0.011l-0.008,0.249l0.212,0.171l0.57,0.04l0.143,0.065l-0.06,0.354
	l-0.3,0.151l-0.358,0.022l-0.681-0.175l-0.112,0.235l-0.359-0.082l-0.557-0.299l0.042-0.248l-0.054-0.123l-1.579,0.216l-0.319,0.345
	l-0.146,0.386l-0.282,0.257l-0.391,0.651l0.05,0.25l-0.044,0.64l0.346,0.643l0.562,0.472l1.25-0.183l0.157,0.185l0.345,0.054
	l-0.071,0.609l0.304,0.446l0.165,0.791l-0.165,0.38l-0.033,0.348l0.581,1.737l0.28,0.194l0.432-0.051l0.326-0.156l0.429-0.56
	l0.085-0.301l0.234-0.271l0.006-0.424l0.313-0.254l0.235-0.391l-0.097-0.861l0.059-0.374l0.961-1.252l0.139-0.439l-0.139-0.096
	l-0.346,0.107l-0.265-0.045l-0.162-0.292l-0.268-0.226l-0.695-1.496l0.131-0.019l1.081,1.868l0.709-0.305l0.12-0.152l0.455-0.293
	l0.125-0.278l-0.066-0.242l-0.358-0.277l-0.366,0.165l-0.076-0.208l-0.059,0.011l-0.232-0.364l1.339,0.493l0.485-0.032l0.452,0.532
	l0.183-0.152l0.578,1.613l0.246-0.229l0.045-0.637l0.587-0.577l0.318-0.17l0.234,0.192l0.327,0.565l0.167-0.149l0.286,1.094
	l0.388,0.675l0.162-0.036l-0.162-0.445l-0.262-0.32l-0.096-0.231l0.072-0.331l0.146,0.094l0.172,0.231l0.124,0.059l0.119,0.158
	l0.231-0.222l0.12-0.273l-0.174-0.388l-0.255-0.304l0.239-0.304l0.18,0.094l0.278-0.188l0.273-0.089l0.251-0.338l0.102-0.475
	l-0.268-0.463l-0.178-0.136l0.218-0.222l-0.205-0.101l-0.158-0.007l-0.162-0.118l0.263-0.171l0.122,0.149l0.265,0.092l0.22,0.199
	l0.123,0.266l0.224-0.203l-0.311-0.366l0.065-0.294l0.162-0.102l0.212-0.266l0.071-0.349l-0.14-0.358l0.012-0.058l0.386,0.544
	l0.189,0.039l-0.214-0.278l0.029-0.086l-0.54-0.507l-0.016,0.084l-0.49-0.159l-0.096-0.107l0.132-0.356l0.833,0.019l0.103-0.104
	l0.096-0.187l0.324,0.013l0.009-0.089l0.041,0.221l-0.068,0.241l0.12,0.307l0.515,0.473l0.087-0.26l-0.121-0.394l-0.245-0.176
	l0.028-0.149l0.456-0.079l0.325-0.178l-0.157-0.155l-0.064-0.134l0.326,0.039l0.26-0.043l-0.022-0.101l-1.845-0.415l-0.134,0.074
	l-2.451-0.337l-0.044,0.1l-0.38,0.017l-0.103,0.067l-0.387-0.236l-0.332-0.037l-0.117,0.055l-0.765-0.072l-0.271,0.055l0.14-0.238
	L240.615,112.991L240.615,112.991z M226.016,113.012l-0.454,0.084l0.21,0.048l0.32-0.113L226.016,113.012L226.016,113.012z
	 M227.377,113.044l0.121,0.014L227.377,113.044L227.377,113.044z M226.132,113.078l-0.317,0.141l0.387,0.063l0.398-0.045
	l-0.05-0.085l-0.233,0.024L226.132,113.078L226.132,113.078z M227.13,113.078l-0.129,0.159l0.232-0.151L227.13,113.078
	L227.13,113.078z M226.813,113.081l0.094,0.044L226.813,113.081L226.813,113.081z M227.638,113.086l-0.14,0.167l0.433,0.052
	l0.363-0.099L227.638,113.086L227.638,113.086z M227.318,113.184l-0.001,0.111L227.318,113.184L227.318,113.184z M225.441,113.26
	l-0.373,0.094l-0.262,0.189l0.356-0.004l0.04,0.149l0.154,0.163l0.928-0.082l-0.054-0.4l-0.161,0.111L225.441,113.26L225.441,113.26
	z M227.238,113.3l-0.208,0.207l0.315-0.062l0.053-0.124L227.238,113.3L227.238,113.3z M226.937,113.305l-0.276,0.107l-0.067,0.139
	l0.35-0.118L226.937,113.305L226.937,113.305z M228.187,113.326l-0.045,0.137l-0.111-0.113l-0.286,0.07l-0.038-0.073l-0.349,0.149
	l0.099,0.229l-0.32,0.208l-0.03-0.128l-0.101-0.08l-0.06-0.192l-0.239,0.174l-0.003,0.139l-1.517,0.07l0.009-0.098l-3.694-0.019
	l-0.131,0.16l-0.002,0.11l-0.335,0.013l-0.197,0.195l0.322-0.004l-0.627,0.24l-0.196,0.258l0.272,0.118l-0.519,0.295l0.173,0.026
	l1.039-0.459l0.037,0.001l0.067,0.07l0.306-0.155l0.629,0.178l0.111,0.199l0.061,0.262l-0.053,0.3l0.167,0.325l-0.085-0.113
	l-0.16,0.081l-0.045,0.432l-0.417,0.621l-0.002,0.458l0.571,1.447l0.133,0.064l-0.253-0.904l0.132,0.123l0.477,0.977l0.067,0.35
	l0.373,0.247l0.667,0.174l0.785,0.475l0.025,0.214l0.287,0.186l0.162-0.042l0.189,0.096l0.046,0.422l-0.354,0.588l0.078,0.229
	l-0.084,0.303l0.65,1.1l0.327,0.194l0.239,0.29l0.545,3.458l0.195,0.383l0.329,0.082l0.102,0.102l0.283,0.127l0.097-0.064
	l-0.304-0.249l-0.092-0.32l0.053-0.273l-0.096-0.229l0.106-0.251l-0.158-0.182l0.201-0.021l0.056-0.239l0.361-0.205l-0.133-0.311
	l0.389-0.091l0.338-0.608l0.007-0.403l0.692-0.395l0.468-1.938l-1.312-0.56l-0.187-0.208l-0.107-0.307l-0.321-0.255l-0.332-0.081
	l-0.37-0.386l-0.033-0.078l-0.027-0.014l-0.437-0.009l-0.236-0.094l-0.158-0.013l-0.122,0.027l-0.079-0.075l-0.55,0.357
	l-0.423-0.017l-0.142-0.324l0.071-0.347l-0.406-0.1l-0.07-0.102l0.207-0.558l-0.391,0.085l-0.224,0.238l-0.302-0.043l-0.114-0.492
	l0.122-0.442l0.343-0.262l0.442,0.009l0.131-0.1l0.35,0.059l0.159,0.181l0.147,0.328l0.15-0.755l0.543-0.365l0.133-0.403
	l1.262-0.827l0.033,0.013l-0.065,0.197l0.279-0.147l0.106-0.127l-0.14-0.267l-0.152-0.134l-0.238,0.102l0.37-0.179l0.452,0.002
	l0.372-0.152l-0.278,0.325l0.002,0.132l0.339,0.042l0.118-0.116l-0.102-0.32l0.025-0.38l-0.219-0.235l-0.071-0.41l-0.251,0.137
	l-0.311-0.381l-0.301-0.048l-0.966,1.222l0.064-0.389l-0.682-0.234l-0.05-0.188l1.1-0.67l-0.032,0.227l0.313-0.039l-0.057-0.228
	l0.145-0.043l0.306-0.262l-0.054-0.118l0.435,0.053l0.069,0.251l-0.474,0.267l0.298,0.005l0.241,0.217l0.157-0.055l0.01-0.045
	l0.23-0.167l-0.025-0.151l0.26,0.103l0.036-0.282l-0.283-0.356l-0.37-0.228L228.187,113.326L228.187,113.326z M226.586,113.719
	l-0.213,0.117l0.276-0.063L226.586,113.719L226.586,113.719z M231.943,114.063l-0.044,0.106l0.045,0.117l0.272,0.099l0.322-0.121
	l-0.078-0.195l-0.38,0.066L231.943,114.063L231.943,114.063z M235.405,114.165l0.112,0.096l-0.175,0.36l0.612,0.117l-0.363,0.057
	l-0.421,0.515l-0.264,0.053l-0.283-0.07l0.057-0.054l0.254-0.068l0.164-0.315l-0.058-0.216L235.405,114.165L235.405,114.165z
	 M233.242,114.878l-0.171,0.205l0.053,0.177l0.17,0.116l-0.101,0.199l-0.043,0.267l0.365-0.063l0.116-0.121l-0.022-0.165
	l-0.214-0.355l0.013-0.16l-0.058-0.049L233.242,114.878L233.242,114.878z M232.933,115.252l-0.194,0.101l-0.054,0.205l0.17,0.084
	l0.199-0.207l-0.097-0.182L232.933,115.252L232.933,115.252L232.933,115.252z M246.361,116.366l0.028,0.241l0.101,0.23l0.1-0.101
	l0.168-0.035l0.082-0.115L246.361,116.366L246.361,116.366z M246.936,116.382l0.012,0.004L246.936,116.382L246.936,116.382
	L246.936,116.382z M246.853,116.482L246.853,116.482L246.853,116.482L246.853,116.482z M234.366,116.669l-0.07,0.459l0.085-0.327
	L234.366,116.669L234.366,116.669z M246.58,116.827l0.006,0.392l-0.149,0.099l-0.126,0.167l-0.32,0.228l0.023,0.173l0.174,0.06
	l-0.155-0.233l0.392,0.001l0.445-0.184l-0.076-0.4L246.58,116.827L246.58,116.827z M236.722,117.516l-0.126,0.131L236.722,117.516
	L236.722,117.516z M235.761,117.524l0.21,0.046L235.761,117.524L235.761,117.524z M246.307,117.658l-0.041,0.174L246.307,117.658
	L246.307,117.658z M245.391,118.722l0.002,0.377l0.075-0.34L245.391,118.722L245.391,118.722z M225.349,118.951l-0.31,0.174
	l0.343-0.018l0.502,0.256l0.119-0.088L225.349,118.951L225.349,118.951z M244.378,119.331l0.044,0.202L244.378,119.331
	L244.378,119.331z M226.168,119.347l-0.032,0.143l-0.047,0.078l0.392-0.023l0.118-0.076l-0.414-0.122L226.168,119.347
	L226.168,119.347L226.168,119.347z M226.79,119.5l0.085,0.038L226.79,119.5L226.79,119.5z M245.497,119.503l-0.082,0.313
	l0.183,0.251l0.311,0.103l-0.264-0.19l-0.005-0.398L245.497,119.503L245.497,119.503z M245.513,120.078l0.128,0.096L245.513,120.078
	L245.513,120.078z M245.799,120.167l0.091,0.085L245.799,120.167L245.799,120.167z M245.92,120.21l0.018,0.148l0.109,0.099l0-0.069
	L245.92,120.21L245.92,120.21z M245.727,120.305l0.07,0.113L245.727,120.305L245.727,120.305z M245.897,120.36l-0.044,0.237
	L245.897,120.36L245.897,120.36z M245.458,120.379l-0.178,0.315L245.458,120.379L245.458,120.379L245.458,120.379z M246.09,120.545
	l-0.206,0.118l-0.088,0.198l0.154,0.064l0.188,0.018l0.065-0.149L246.09,120.545L246.09,120.545z M245.252,120.853l-0.706,0.602
	l-0.077,0.331l0.139,0.278l0.58,0.054l0.046-0.276l0.224-0.253l-0.101-0.374l0.064-0.091L245.252,120.853L245.252,120.853z
	 M243.107,121.02l0.852,1.328l0.179-0.089l-0.115-0.369l-0.672-0.756L243.107,121.02L243.107,121.02z M246.435,121.378l0.018,0.034
	L246.435,121.378L246.435,121.378z M246.369,121.458l0.039,0.16l-0.012-0.103L246.369,121.458L246.369,121.458z M246.057,121.468
	l-0.381,0.052l-0.19,0.4l0.017,0.228l0.086,0.188l0.033-0.303l0.184,0.203l0.055,0.027l-0.095-0.342l0.115-0.161l-0.211,0.06
	l0.115-0.165l0.278-0.063L246.057,121.468L246.057,121.468z M246.356,121.716l0.04,0.048L246.356,121.716L246.356,121.716z
	 M246.84,121.729l-0.208,0.087l0.23,0.172l0.008,0.208l0.135-0.029l0.313,0.15l0.011,0.301l0.864,0.117l0.254,0.164l0.169-0.011
	l-0.316-0.35l0.037-0.146l-0.529-0.377l-0.367-0.136l-0.285,0.11l-0.15-0.168L246.84,121.729L246.84,121.729z M246.345,121.843
	l0.023,0.008L246.345,121.843L246.345,121.843L246.345,121.843z M247.17,121.869l0.04,0.004L247.17,121.869L247.17,121.869z
	 M246.044,121.885l0.15,0.107L246.044,121.885L246.044,121.885z M246.428,122.017l0.099,0.081l0.101-0.042L246.428,122.017
	L246.428,122.017z M248.696,122.02l0.175,0.229l-0.12-0.215L248.696,122.02L248.696,122.02z M246.216,122.046l0.111,0.012
	L246.216,122.046L246.216,122.046z M248.774,122.173l-0.245,0.159l-0.07,0.084l0.352-0.134L248.774,122.173L248.774,122.173z
	 M249.057,122.289l0.126,0.144L249.057,122.289L249.057,122.289z M247.021,122.344l0.015,0.093L247.021,122.344L247.021,122.344z
	 M244.17,122.376l0.024,0.171l0.734,0.154l0.119-0.089l-0.316-0.142l-0.177,0.005L244.17,122.376L244.17,122.376L244.17,122.376z
	 M249.245,122.468l0.026,0.011l-0.014-0.008L249.245,122.468L249.245,122.468L249.245,122.468z M246.719,122.531l-0.007,0.046
	L246.719,122.531L246.719,122.531z M249.439,122.574l0.081,0.041L249.439,122.574L249.439,122.574z M249.318,122.629l0.047,0.017
	L249.318,122.629L249.318,122.629z M245.149,122.634l0.055,0.088l0.178,0.001l-0.015-0.079L245.149,122.634L245.149,122.634
	L245.149,122.634z M245.99,122.647L245.99,122.647L245.99,122.647L245.99,122.647z M246.157,122.647l-0.258,0.131l0.077,0.088
	l0.27-0.2L246.157,122.647L246.157,122.647z M245.575,122.65l0.006,0.086l0.152-0.071L245.575,122.65L245.575,122.65z
	 M249.64,122.669l0.039,0.074L249.64,122.669L249.64,122.669z M249.578,122.748l0.052,0.062L249.578,122.748L249.578,122.748z
	 M245.484,122.771l0.101,0.122L245.484,122.771L245.484,122.771z M249.704,122.896l0.031,0.011l-0.017-0.01L249.704,122.896
	L249.704,122.896L249.704,122.896z M247.768,122.935l-0.226,0.606l-0.212,0.115l-0.271-0.273l0.079-0.3l-0.387-0.087l-0.36,0.375
	l-0.408,0.028l-0.201,0.286l-1.078,0.615l-0.112,0.63l0.041,0.458l-0.138,0.334l0.276,0.081l1.41-0.385l0.217,0.291l0.27-0.075
	l-0.083,0.112l0.08,0.068l0.036,0.242l0.183,0.163l0.297,0.01l0.321-0.087l0.823-0.85l0.2-0.665l-0.443-0.702l-0.068-0.343
	l-0.153-0.239l-0.07-0.391l-0.01-0.011L247.768,122.935L247.768,122.935L247.768,122.935z M246.6,123.014l0.038,0.008l-0.016-0.008
	L246.6,123.014L246.6,123.014L246.6,123.014z M238.374,123.109l-0.187,0.293l-0.326,0.219l-0.144,0.743l0.154,0.329l0.297-0.251
	l0.286-0.899l-0.031-0.369L238.374,123.109L238.374,123.109z M250.143,123.407l0.055,0.14L250.143,123.407L250.143,123.407z
	 M250.279,123.465l0.015,0.057L250.279,123.465L250.279,123.465z M249.751,124.054l0.19,0.252l-0.107-0.191L249.751,124.054
	L249.751,124.054z M250.003,125.721l-0.033,0.327l-0.217,0.265l-0.009,0.178l0.235-0.058l0.324-0.272l-0.119-0.052l-0.106-0.133
	L250.003,125.721L250.003,125.721z M246.541,125.874l0.024,0.001L246.541,125.874L246.541,125.874L246.541,125.874z
	 M246.979,126.439l-0.108,0.33l0.285-0.092l0.038-0.216L246.979,126.439L246.979,126.439z M249.539,126.439l-0.956,0.575
	l0.109,0.133l0.669-0.331l0.298-0.275L249.539,126.439L249.539,126.439L249.539,126.439z M229.659,128.679l-0.035,0.021
	L229.659,128.679L229.659,128.679z M229.447,128.739l0.025,0.007L229.447,128.739L229.447,128.739L229.447,128.739z
	 M229.904,128.811l0.01,0.023L229.904,128.811L229.904,128.811z M229.388,128.821L229.388,128.821L229.388,128.821L229.388,128.821z
	 M229.767,128.821l-0.233,0.1l-0.033,0.044l-0.048,0.031l-0.091,0.014l-0.005,0.069l-0.094,0.135l0.004,0.065l0.088,0.121
	l-0.006,0.057l-0.03,0.051l0.232,0.184l-0.191,0.152l-0.477,0.034l-0.198-0.05l0.009,0.058l-0.679-0.105l-0.159,0.05l-0.749-0.024
	l-0.025,0.026l0.312,0.043l-0.233,0.005l0.282,0.081l-0.01,0.018l0.05,0.043l-0.675,0.002l-0.112-0.098l-0.059,0.025l-2.08,0.113
	l-0.048,0.044l-0.131-0.012l-0.021,0.034l0.264,0.033l-0.01,0.009l0.026,0.033l-0.111-0.025l0.052,0.032l-0.608-0.026l-0.048,0.023
	l0.337,0.062l0.022,0.041l0.883,0.132l0.036,0.085l-0.531,0.004l1.621,0.248l-1.818-0.011l0.803,0.249l20.544-0.213l-1.097-0.08
	l0.026-0.03l-0.213-0.106l0.087-0.021l0.003-0.034l0.032-0.009l0.024-0.019l-0.044-0.016l0.816-0.146l-0.025-0.034l-0.086,0.005
	l0.067-0.106l1.404-0.521l-0.125-0.062l-0.284-0.024l-0.249-0.147l-0.145-0.035l-0.291,0.024l-0.007-0.048l-0.07-0.052l-0.11-0.01
	l-0.037-0.045l-0.065-0.04l-0.616-0.102l0.024-0.087l-0.164,0.097l-1.359,0.022l-0.13-0.056l-1.954,0.092l-0.062-0.042l-1.818,0.602
	l-0.013-0.077l0.149-0.124l-0.056,0.008l0.072-0.04l0.028-0.062l0.132-0.085l-0.065-0.068l-0.712-0.065l-0.108-0.075l-0.354-0.064
	l-0.176,0.128l-0.741,0.133l-0.181,0.118l-0.218-0.004l-0.031-0.04l-3.113,0.189l-0.086,0.051l-0.22-0.065l-0.092,0.022
	l-0.011,0.116l-0.309,0.129v0.013l0.192,0.007l-0.225,0.146l-0.945,0.157l-0.099,0.148l0.477,0.012l-0.043,0.046l0.028,0.054
	l-3.245-0.051l0.166-0.04l-0.436-0.026l-0.098-0.069l0.373,0.026l-0.333-0.066l0.029-0.022l0.442,0.047l0.009-0.058l-0.422-0.105
	l0.966-0.084l-0.028-0.017l-0.005-0.026l0.095-0.076l0-0.029l-0.099-0.051l0.105,0.001l-0.189-0.132l-0.003-0.05l-0.338-0.261
	l-0.012-0.039l-0.038,0.036l-0.097-0.031l-0.043-0.03l-0.045-0.083l0.075-0.039l-0.001-0.061l0.155,0.011l0.029-0.053l-0.104-0.04
	l0.004-0.045l0.167-0.099L229.767,128.821L229.767,128.821z M229.785,128.882L229.785,128.882L229.785,128.882L229.785,128.882z
	 M229.749,128.884l0.053,0.023L229.749,128.884L229.749,128.884z M229.414,128.908l0.022,0.005L229.414,128.908L229.414,128.908
	L229.414,128.908z M229.352,128.929l0.057,0.032L229.352,128.929L229.352,128.929z M242.058,128.935l0.028,0.011L242.058,128.935
	L242.058,128.935L242.058,128.935z M242.231,129.074l0.007,0.027L242.231,129.074L242.231,129.074z M241.545,129.106
	L241.545,129.106L241.545,129.106L241.545,129.106z M229.208,129.125L229.208,129.125L229.208,129.125L229.208,129.125z
	 M242.125,129.154l-0.01,0.005L242.125,129.154L242.125,129.154L242.125,129.154z M229.156,129.175l0.028,0.084L229.156,129.175
	L229.156,129.175z M229.074,129.399l-0.023,0.078l0.022,0.1l0.159,0.058l-0.147,0.008l-0.065,0.047l0.08,0.032l0.075-0.034
	l0.054,0.053l0.05,0.021l-0.058,0.021l0.254-0.066L229.074,129.399L229.074,129.399z M229.736,129.433l0.031,0.021l-0.014-0.013
	L229.736,129.433L229.736,129.433L229.736,129.433z M246.013,129.449L246.013,129.449L246.013,129.449L246.013,129.449z
	 M228.834,129.502L228.834,129.502L228.834,129.502L228.834,129.502z M235.557,129.528l0.019-0.001L235.557,129.528L235.557,129.528
	z M235.351,129.536L235.351,129.536L235.351,129.536L235.351,129.536z M234.255,129.552l0.01,0.003L234.255,129.552L234.255,129.552
	L234.255,129.552z M233.948,129.573L233.948,129.573L233.948,129.573L233.948,129.573z M228.934,129.584l-0.076,0.052
	L228.934,129.584L228.934,129.584z M234.17,129.591l0.047,0.008L234.17,129.591L234.17,129.591L234.17,129.591z M227.241,129.692
	l-0.003,0.026l-0.204-0.002l0.473,0.029l-0.004-0.012L227.241,129.692L227.241,129.692z M228.754,129.745l0.041,0.003
	L228.754,129.745L228.754,129.745L228.754,129.745z M227.875,129.766l0.028,0.008l-0.014-0.006L227.875,129.766L227.875,129.766
	L227.875,129.766z M227.228,129.768l0.054,0.006L227.228,129.768L227.228,129.768z M229.032,129.797l0.041,0.058l0.052-0.045
	L229.032,129.797L229.032,129.797z M226.931,129.808l0.014,0.003L226.931,129.808L226.931,129.808L226.931,129.808z M225.41,129.832
	l0.167,0.067l0.098-0.015L225.41,129.832L225.41,129.832z M226.63,129.832l0.234,0.107L226.63,129.832L226.63,129.832
	L226.63,129.832z M225.784,129.863l0.086,0.075l0.177-0.053L225.784,129.863L225.784,129.863z M246.474,129.879h0.018H246.474
	L246.474,129.879L246.474,129.879z M225.47,129.927h0.028H225.47L225.47,129.927L225.47,129.927z M225.212,129.929h0.023H225.212
	L225.212,129.929L225.212,129.929z M233,129.929v0.05l0.006-0.042L233,129.929L233,129.929z M224.426,130.043L224.426,130.043
	L224.426,130.043L224.426,130.043z M224.451,130.138l0.023,0.003L224.451,130.138L224.451,130.138L224.451,130.138z
	 M224.392,130.148h0.018H224.392L224.392,130.148L224.392,130.148z M224.557,130.159L224.557,130.159L224.557,130.159
	L224.557,130.159z M224.333,130.164l0.052,0.004L224.333,130.164L224.333,130.164L224.333,130.164z M224.341,130.193l0.019,0
	L224.341,130.193L224.341,130.193L224.341,130.193z M224.457,130.198L224.457,130.198L224.457,130.198L224.457,130.198z
	 M245.665,130.235l-0.091,0.055l0.21-0.038L245.665,130.235L245.665,130.235z M231.365,130.272l-0.317,0.243l0.625-0.06
	l-0.032-0.072l-0.227-0.108L231.365,130.272L231.365,130.272L231.365,130.272z M230.035,130.312l-0.143,0.105L230.035,130.312
	L230.035,130.312z M231.804,130.322l-0.013,0.009l0.208,0.004L231.804,130.322L231.804,130.322z M230.571,130.417l-0.114,0.053
	l-0.234-0.003l0.383,0.046L230.571,130.417L230.571,130.417z"/>
<g>
	<path fill="#888888" d="M250.205,112.53v18.111h-30V112.53H250.205 M250.205,109.53h-30c-1.657,0-3,1.343-3,3v18.111
		c0,1.657,1.343,3,3,3h30c1.657,0,3-1.343,3-3V112.53C253.205,110.873,251.862,109.53,250.205,109.53L250.205,109.53z"/>
</g>
</svg>
